<svg width="20" height="20" viewBox="0 0 20 20" fill="none" xmlns="http://www.w3.org/2000/svg">
    <path d="M13.3332 5.00001V14.5833C13.3332 16.425 11.8415 17.9167 9.99984 17.9167C8.15817 17.9167 6.6665 16.425 6.6665 14.5833V4.16668C6.6665 3.01668 7.59984 2.08334 8.74984 2.08334C9.89984 2.08334 10.8332 3.01668 10.8332 4.16668V12.9167C10.8332 13.375 10.4582 13.75 9.99984 13.75C9.5415 13.75 9.1665 13.375 9.1665 12.9167V5.00001H7.9165V12.9167C7.9165 14.0667 8.84984 15 9.99984 15C11.1498 15 12.0832 14.0667 12.0832 12.9167V4.16668C12.0832 2.32501 10.5915 0.833344 8.74984 0.833344C6.90817 0.833344 5.4165 2.32501 5.4165 4.16668V14.5833C5.4165 17.1167 7.4665 19.1667 9.99984 19.1667C12.5332 19.1667 14.5832 17.1167 14.5832 14.5833V5.00001H13.3332Z" fill="#1167C3"/>
</svg>
