<svg width="32" height="32" viewBox="0 0 32 32" fill="none" xmlns="http://www.w3.org/2000/svg">
    <rect x="0.5" y="0.5" width="31" height="31" rx="5.5" stroke="#F4B248"/>
    <path fill-rule="evenodd" clip-rule="evenodd" d="M10.1667 11.2085C9.55888 11.2085 8.97598 11.4499 8.54621 11.8797C8.11644 12.3095 7.875 12.8924 7.875 13.5002V21.0002C7.875 21.608 8.11644 22.1908 8.54621 22.6206C8.97598 23.0504 9.55888 23.2918 10.1667 23.2918H21.8333C22.4411 23.2918 23.024 23.0504 23.4538 22.6206C23.8836 22.1908 24.125 21.608 24.125 21.0002V13.5002C24.125 12.8924 23.8836 12.3095 23.4538 11.8797C23.024 11.4499 22.4411 11.2085 21.8333 11.2085H10.1667ZM19.75 16.2085C19.4737 16.2085 19.2088 16.3182 19.0134 16.5136C18.8181 16.7089 18.7083 16.9739 18.7083 17.2502C18.7083 17.5264 18.8181 17.7914 19.0134 17.9867C19.2088 18.1821 19.4737 18.2918 19.75 18.2918C20.0263 18.2918 20.2912 18.1821 20.4866 17.9867C20.6819 17.7914 20.7917 17.5264 20.7917 17.2502C20.7917 16.9739 20.6819 16.7089 20.4866 16.5136C20.2912 16.3182 20.0263 16.2085 19.75 16.2085Z" fill="#F4B248"/>
    <path d="M19.7375 8.55767C19.9842 8.49192 20.2428 8.48374 20.4932 8.53376C20.7436 8.58378 20.9791 8.69067 21.1817 8.84617C21.3842 9.00168 21.5483 9.20164 21.6613 9.43062C21.7743 9.65961 21.8331 9.91149 21.8333 10.1668H13.5L19.7375 8.55767Z" fill="#F4B248"/>
</svg>
