<svg width="32" height="32" viewBox="0 0 32 32" fill="none" xmlns="http://www.w3.org/2000/svg">
    <g clip-path="url(#clip0_222_99)">
        <path d="M25.1429 0H6.85714C5.03913 0.00199652 3.29615 0.725085 2.01062 2.01062C0.725085 3.29615 0.00199652 5.03913 0 6.85714V25.1429C0.00199652 26.9609 0.725085 28.7039 2.01062 29.9894C3.29615 31.2749 5.03913 31.998 6.85714 32H25.1429C26.9609 31.998 28.7039 31.2749 29.9894 29.9894C31.2749 28.7039 31.998 26.9609 32 25.1429V6.85714C31.998 5.03913 31.2749 3.29615 29.9894 2.01062C28.7039 0.725085 26.9609 0.00199652 25.1429 0ZM6.85714 2.28571H25.1429C26.3549 2.28698 27.5169 2.76902 28.3739 3.62606C29.231 4.48309 29.713 5.64511 29.7143 6.85714V20.479L24.428 16.2504C24.2201 16.0841 23.9607 15.9957 23.6946 16.0003C23.4284 16.005 23.1723 16.1025 22.9704 16.276L17.2405 21.1867L11.2081 12.9446C11.1104 12.8111 10.9849 12.7005 10.8402 12.6202C10.6956 12.54 10.5353 12.4922 10.3703 12.48C10.2054 12.4678 10.0397 12.4915 9.88485 12.5496C9.72997 12.6076 9.58954 12.6986 9.47326 12.8162L2.28571 20.0779V6.85714C2.28698 5.64511 2.76902 4.48309 3.62606 3.62606C4.48309 2.76902 5.64511 2.28698 6.85714 2.28571ZM25.1429 29.7143H6.85714C5.64511 29.713 4.48309 29.231 3.62606 28.3739C2.76902 27.5169 2.28698 26.3549 2.28571 25.1429V23.327L10.1551 15.3761L16.125 23.5323C16.2181 23.6594 16.3364 23.7659 16.4726 23.845C16.6087 23.9242 16.7598 23.9744 16.9162 23.9924C17.0727 24.0104 17.2312 23.9959 17.3818 23.9498C17.5324 23.9037 17.6718 23.8269 17.7913 23.7243L23.7394 18.6262L29.7143 23.4066V25.1429C29.713 26.3549 29.231 27.5169 28.3739 28.3739C27.5169 29.231 26.3549 29.713 25.1429 29.7143Z" fill="white"/>
        <path d="M22.2857 11.4285C21.4946 11.4285 20.7212 11.1939 20.0634 10.7543C19.4056 10.3148 18.8929 9.69011 18.5902 8.9592C18.2874 8.2283 18.2082 7.42403 18.3626 6.64811C18.5169 5.87218 18.8979 5.15945 19.4573 4.60004C20.0167 4.04063 20.7294 3.65967 21.5053 3.50533C22.2813 3.35099 23.0855 3.4302 23.8164 3.73295C24.5473 4.0357 25.1721 4.54839 25.6116 5.20619C26.0511 5.86398 26.2857 6.63734 26.2857 7.42847C26.2844 8.48894 25.8626 9.50562 25.1127 10.2555C24.3629 11.0054 23.3462 11.4272 22.2857 11.4285ZM22.2857 5.71418C21.9467 5.71418 21.6152 5.81472 21.3333 6.00309C21.0514 6.19146 20.8317 6.4592 20.7019 6.77244C20.5722 7.08568 20.5382 7.43037 20.6044 7.76291C20.6705 8.09545 20.8338 8.4009 21.0735 8.64065C21.3133 8.8804 21.6187 9.04367 21.9513 9.10982C22.2838 9.17596 22.6285 9.14201 22.9417 9.01226C23.255 8.88251 23.5227 8.66279 23.7111 8.38087C23.8995 8.09896 24 7.76752 24 7.42847C23.9995 6.97397 23.8187 6.53823 23.4973 6.21685C23.1759 5.89547 22.7402 5.7147 22.2857 5.71418Z" fill="white"/>
    </g>
    <defs>
        <clipPath id="clip0_222_99">
            <rect width="32" height="32" fill="white"/>
        </clipPath>
    </defs>
</svg>
