<svg width="32" height="32" viewBox="0 0 32 32" fill="none" xmlns="http://www.w3.org/2000/svg">
    <path fill-rule="evenodd" clip-rule="evenodd" d="M10.1012 10.3432C9.67513 10.7692 9.67513 11.4599 10.1012 11.886L14.2152 16L10.1011 20.114C9.67512 20.5401 9.67512 21.2308 10.1011 21.6568C10.5272 22.0828 11.2179 22.0828 11.6439 21.6568L15.758 17.5428L19.8721 21.6569C20.2981 22.0829 20.9888 22.0829 21.4149 21.6569C21.8409 21.2309 21.8409 20.5401 21.4149 20.1141L17.3008 16L21.4149 11.8859C21.8409 11.4599 21.8409 10.7691 21.4149 10.3431C20.9888 9.91708 20.2981 9.91708 19.8721 10.3431L15.758 14.4572L11.6439 10.3432C11.2179 9.91715 10.5272 9.91715 10.1012 10.3432Z" fill="#242424"/>
    <mask id="mask0_453_3416" style="mask-type:luminance" maskUnits="userSpaceOnUse" x="8" y="8" width="16" height="16">
        <path fill-rule="evenodd" clip-rule="evenodd" d="M9.08605 9.08607C8.56535 9.60677 8.56535 10.451 9.08605 10.9717L14.1144 16L9.08605 21.0283C8.56535 21.549 8.56535 22.3932 9.08605 22.9139C9.60675 23.4346 10.451 23.4346 10.9717 22.9139L16 17.8856L21.0283 22.9139C21.549 23.4346 22.3932 23.4346 22.9139 22.9139C23.4346 22.3932 23.4346 21.549 22.9139 21.0283L17.8856 16L22.9139 10.9717C23.4346 10.451 23.4346 9.60676 22.9139 9.08606C22.3932 8.56536 21.549 8.56536 21.0283 9.08606L16 14.1144L10.9717 9.08607C10.451 8.56537 9.60675 8.56537 9.08605 9.08607Z" fill="white"/>
    </mask>
    <g mask="url(#mask0_453_3416)">
    </g>
</svg>
