<svg width="24" height="24" viewBox="0 0 24 24" fill="none" xmlns="http://www.w3.org/2000/svg">
    <path fill-rule="evenodd" clip-rule="evenodd" d="M7.57597 7.75739C7.25645 8.07691 7.25645 8.59495 7.57597 8.91447L10.6615 12L7.57597 15.0855C7.25645 15.405 7.25645 15.9231 7.57597 16.2426C7.89549 16.5621 8.41353 16.5621 8.73305 16.2426L11.8186 13.1571L14.9042 16.2427C15.2237 16.5622 15.7417 16.5622 16.0613 16.2427C16.3808 15.9232 16.3808 15.4051 16.0613 15.0856L12.9757 12L16.0613 8.91441C16.3808 8.59489 16.3808 8.07685 16.0613 7.75733C15.7417 7.43781 15.2237 7.43781 14.9042 7.75733L11.8186 10.8429L8.73305 7.75739C8.41353 7.43787 7.89549 7.43787 7.57597 7.75739Z" fill="#242424"/>
    <mask id="mask0_453_4042" style="mask-type:luminance" maskUnits="userSpaceOnUse" x="6" y="6" width="12" height="12">
        <path fill-rule="evenodd" clip-rule="evenodd" d="M6.81454 6.81457C6.42401 7.20509 6.42401 7.83826 6.81454 8.22878L10.5858 12L6.81456 15.7712C6.42404 16.1618 6.42404 16.7949 6.81456 17.1855C7.20509 17.576 7.83825 17.576 8.22878 17.1855L12 13.4142L15.7712 17.1855C16.1617 17.576 16.7949 17.576 17.1854 17.1855C17.576 16.7949 17.576 16.1618 17.1854 15.7713L13.4142 12L17.1855 8.22877C17.576 7.83825 17.576 7.20508 17.1855 6.81456C16.7949 6.42403 16.1618 6.42404 15.7712 6.81456L12 10.5858L8.22875 6.81457C7.83823 6.42404 7.20506 6.42404 6.81454 6.81457Z" fill="white"/>
    </mask>
    <g mask="url(#mask0_453_4042)">
    </g>
</svg>
