<svg width="24" height="24" viewBox="0 0 24 24" fill="none" xmlns="http://www.w3.org/2000/svg">
    <path d="M2.36409 19.0584C2.19945 19.0584 2.03385 19.0013 1.90041 18.8837C1.60857 18.6278 1.57977 18.1834 1.83561 17.8915L5.80569 13.3666C5.93913 13.2149 6.13161 13.127 6.33369 13.127H6.33417C6.53625 13.127 6.72873 13.2139 6.86217 13.3656L9.87225 16.7837L12.8314 11.9592C12.9462 11.772 13.142 11.6491 13.3604 11.627C13.5788 11.604 13.7953 11.6866 13.9455 11.8464L16.5769 14.6635L20.1946 8.46528C20.391 8.12976 20.822 8.01696 21.1566 8.21232C21.4921 8.40816 21.6058 8.83872 21.4095 9.17424L17.3146 16.1885C17.2028 16.38 17.0065 16.5082 16.7857 16.5326C16.563 16.5581 16.345 16.4765 16.1934 16.3142L13.5476 13.4822L10.573 18.3317C10.4564 18.5218 10.2562 18.6456 10.034 18.6643C9.81081 18.6816 9.59337 18.5957 9.44601 18.4286L6.33513 14.8968L2.89305 18.8198C2.75385 18.9773 2.55945 19.0584 2.36409 19.0584Z" fill="#242424"/>
</svg>
