<svg width="24" height="24" viewBox="0 0 24 24" fill="none" xmlns="http://www.w3.org/2000/svg">
    <path d="M15.5227 4.75C14.2807 4.75005 13.1544 5.24527 12.3398 6.04579L12.3388 6.0468L12.0005 6.38304L11.6624 6.04519L11.6624 6.04518L11.6608 6.04363C10.8462 5.24376 9.72118 4.75 8.47994 4.75C7.23861 4.75 6.11371 5.24452 5.29912 6.04355L5.29904 6.04363L5.06952 6.26898C4.25474 7.06893 3.75 8.17553 3.75 9.39843C3.75 10.6214 4.25552 11.728 5.06944 12.5278L5.06952 12.5279L11.1236 18.4718L11.8052 19.1729L11.9803 19.353L12.0007 19.333L12.0232 19.355L12.1983 19.1736L12.8364 18.5125L18.9319 12.5279L18.9321 12.5276C19.7452 11.7271 20.25 10.6214 20.25 9.39843C20.25 8.17571 19.7461 7.06997 18.9323 6.26938C18.9322 6.2693 18.9321 6.26922 18.9321 6.26914L18.7043 6.04417L18.704 6.04385C18.2862 5.63267 17.7901 5.30685 17.2441 5.0849C16.6983 4.86297 16.1133 4.74919 15.5227 4.75ZM15.5227 4.75C15.5228 4.75 15.5228 4.75 15.5229 4.75V5L15.5225 4.75C15.5226 4.75 15.5227 4.75 15.5227 4.75ZM11.8101 18.8194L11.9844 18.9986L11.8093 18.8202L11.8101 18.8194ZM11.9844 18.9986L11.9974 18.986L11.9844 18.9986ZM12.1741 8.39964L13.4439 7.13766C13.4441 7.13747 13.4443 7.13728 13.4445 7.13709C13.9758 6.61576 14.7101 6.29258 15.5229 6.29258C16.3359 6.29258 17.0706 6.616 17.6019 7.13766L17.8312 7.36279C17.8312 7.36284 17.8313 7.36289 17.8313 7.36295C18.3619 7.88524 18.6888 8.6044 18.6888 9.39774C18.6888 10.1911 18.3619 10.9103 17.8313 11.4326C17.8312 11.4326 17.8312 11.4327 17.8312 11.4327L12.0014 17.1564L6.17143 11.4325C5.64018 10.9109 5.31261 10.1918 5.31261 9.39774C5.31261 8.60372 5.64018 7.88459 6.17143 7.363L6.40095 7.13766L6.40118 7.13743C6.67341 6.86947 6.99713 6.65673 7.35388 6.51165C7.71063 6.36657 8.09322 6.29209 8.47962 6.29258L8.48017 6.29258C8.86627 6.29223 9.24855 6.36666 9.60507 6.51152C9.96126 6.65624 10.2846 6.86836 10.5568 7.13551L11.8212 8.39915L11.9974 8.57527L12.1741 8.39964ZM8.47994 6.04258C8.89829 6.0422 9.31261 6.12285 9.69917 6.27991C10.0857 6.43697 10.4369 6.66736 10.7327 6.95788L8.47994 6.04258Z" fill="#242424" stroke="#242424" stroke-width="0.5"/>
</svg>
