<svg width="19" height="22" viewBox="0 0 19 22" fill="none" xmlns="http://www.w3.org/2000/svg">
    <path d="M13.0957 19.3773C13.0957 19.6686 13.325 19.9047 13.621 19.9047H16.2371C16.5272 19.9047 16.7625 19.6662 16.7625 19.3852V10.471C16.7625 9.89505 16.4283 9.09399 16.0189 8.68462L9.80264 2.46833C9.59622 2.26191 9.26193 2.26153 9.05513 2.46833L2.83885 8.68462C2.4282 9.09526 2.09531 9.89866 2.09531 10.471V19.3852C2.09531 19.6721 2.32468 19.9047 2.62067 19.9047H5.23673C5.52688 19.9047 5.7621 19.669 5.7621 19.3773V14.6628C5.7621 13.5076 6.69835 12.5711 7.85379 12.5711H11.004C12.1592 12.5711 13.0957 13.5074 13.0957 14.6628V19.3773ZM11.0004 15.4512C11.0004 15.0178 10.652 14.6664 10.2154 14.6664H8.6424C8.20886 14.6664 7.8574 15.0201 7.8574 15.4512V19.9083C7.8574 21.0635 6.91742 22 5.76209 22H2.09532C0.938105 22 0 21.0656 0 19.9V10.6602C0 9.50043 0.663021 7.89723 1.48364 7.07661L7.94525 0.615002C8.76464 -0.204388 10.0919 -0.205613 10.9125 0.615002L17.3741 7.07661C18.1935 7.896 18.8578 9.49464 18.8578 10.6602V19.9C18.8578 21.0598 17.9178 22 16.7624 22H13.0957C11.9385 22 11.0004 21.0637 11.0004 19.9083V15.4512Z" fill="#242424"/>
</svg>
