<svg width="16" height="16" viewBox="0 0 16 16" fill="none" xmlns="http://www.w3.org/2000/svg">
    <g clip-path="url(#clip0_453_7916)">
        <path d="M12.5714 0H3.42857C2.51956 0.000998262 1.64807 0.362542 1.00531 1.00531C0.362542 1.64807 0.000998262 2.51956 0 3.42857V12.5714C0.000998262 13.4804 0.362542 14.3519 1.00531 14.9947C1.64807 15.6375 2.51956 15.999 3.42857 16H12.5714C13.4804 15.999 14.3519 15.6375 14.9947 14.9947C15.6375 14.3519 15.999 13.4804 16 12.5714V3.42857C15.999 2.51956 15.6375 1.64807 14.9947 1.00531C14.3519 0.362542 13.4804 0.000998262 12.5714 0ZM3.42857 1.14286H12.5714C13.1774 1.14349 13.7585 1.38451 14.187 1.81303C14.6155 2.24155 14.8565 2.82256 14.8571 3.42857V10.2395L12.214 8.1252C12.1101 8.04206 11.9804 7.99783 11.8473 8.00017C11.7142 8.00251 11.5861 8.05126 11.4852 8.138L8.62023 10.5934L5.60406 6.47229C5.5552 6.40556 5.49245 6.35023 5.42012 6.31012C5.3478 6.27002 5.26763 6.24609 5.18515 6.23998C5.10268 6.23388 5.01986 6.24576 4.94242 6.27478C4.86499 6.30381 4.79477 6.3493 4.73663 6.40811L1.14286 10.039V3.42857C1.14349 2.82256 1.38451 2.24155 1.81303 1.81303C2.24155 1.38451 2.82256 1.14349 3.42857 1.14286ZM12.5714 14.8571H3.42857C2.82256 14.8565 2.24155 14.6155 1.81303 14.187C1.38451 13.7585 1.14349 13.1774 1.14286 12.5714V11.6635L5.07754 7.68806L8.06251 11.7662C8.10905 11.8297 8.1682 11.8829 8.23628 11.9225C8.30436 11.9621 8.37988 11.9872 8.45811 11.9962C8.53634 12.0052 8.61559 11.998 8.69089 11.9749C8.76618 11.9518 8.8359 11.9135 8.89566 11.8622L11.8697 9.31309L14.8571 11.7033V12.5714C14.8565 13.1774 14.6155 13.7585 14.187 14.187C13.7585 14.6155 13.1774 14.8565 12.5714 14.8571Z" fill="black"/>
        <path d="M11.1429 5.71436C10.7473 5.71436 10.3606 5.59706 10.0317 5.3773C9.70285 5.15753 9.4465 4.84518 9.29513 4.47972C9.14375 4.11427 9.10414 3.71214 9.18131 3.32418C9.25848 2.93621 9.44897 2.57985 9.72867 2.30014C10.0084 2.02044 10.3647 1.82996 10.7527 1.75279C11.1407 1.67562 11.5428 1.71522 11.9083 1.8666C12.2737 2.01797 12.5861 2.27432 12.8058 2.60322C13.0256 2.93211 13.1429 3.31879 13.1429 3.71436C13.1422 4.24459 12.9313 4.75293 12.5564 5.12787C12.1815 5.5028 11.6731 5.71372 11.1429 5.71436ZM11.1429 2.85721C10.9734 2.85721 10.8076 2.90748 10.6667 3.00167C10.5257 3.09585 10.4159 3.22972 10.351 3.38634C10.2861 3.54296 10.2691 3.71531 10.3022 3.88158C10.3353 4.04785 10.4169 4.20057 10.5368 4.32045C10.6567 4.44032 10.8094 4.52196 10.9757 4.55503C11.1419 4.5881 11.3143 4.57113 11.4709 4.50625C11.6275 4.44138 11.7614 4.33152 11.8556 4.19056C11.9498 4.0496 12 3.88388 12 3.71436C11.9998 3.48711 11.9094 3.26924 11.7487 3.10855C11.588 2.94786 11.3701 2.85747 11.1429 2.85721Z" fill="black"/>
    </g>
    <defs>
        <clipPath id="clip0_453_7916">
            <rect width="16" height="16" fill="white"/>
        </clipPath>
    </defs>
</svg>
