<svg width="162" height="80" viewBox="0 0 162 80" fill="none" xmlns="http://www.w3.org/2000/svg">
    <g clip-path="url(#clip0_115_922)">
        <path d="M93.934 66.8892L93.5611 67.2627V72.2374H87.959V67.2627L87.586 66.8892H86.372L85.999 67.2627V79.4135L86.372 79.787H87.586L87.959 79.4135V74.0891H93.5611V79.4135L93.934 79.787H95.1481L95.521 79.4135V67.2627L95.1481 66.8892H93.934Z" fill="white"/>
        <path d="M74.0888 0H59.0203V4.15624H102.234V0H81.7301H74.0888Z" fill="white"/>
        <path d="M118.278 66.8892L117.937 67.1117L113.819 76.6639L109.701 67.1117L109.36 66.8892H107.487L107.114 67.2627V79.4135L107.487 79.787H108.701L109.074 79.4135V70.4414L112.97 79.5566L113.311 79.787H114.327L114.668 79.5566L118.564 70.4414V79.4135L118.937 79.787H120.151L120.524 79.4135V67.2627L120.151 66.8892H118.278Z" fill="white"/>
        <path d="M118.239 47.4988H122.389V22.8951V15.2343V0.143066H118.239V47.4988Z" fill="white"/>
        <path d="M78.5481 47.4989H82.6981L82.706 39.2023V34.2593V21.6714H78.5481V47.4989Z" fill="white"/>
        <path d="M161.056 22.8951V15.2343V0.143066H156.906V47.4988H161.056V22.8951Z" fill="white"/>
        <path d="M149.28 66.8892L148.907 67.2627V76.1314L142.734 67.0481L142.432 66.8892H140.79L140.417 67.2627V79.4135L140.79 79.787H142.004L142.377 79.4135V69.9487L148.979 79.6201L149.28 79.787H150.494L150.867 79.4135V67.2627L150.494 66.8892H149.28Z" fill="white"/>
        <path d="M161.627 66.8892H154.874L154.501 67.2627V68.3593L154.874 68.7328H157.271V79.4135L157.644 79.787H158.858L159.231 79.4135V68.7328H161.627L162 68.3593V67.2627L161.627 66.8892Z" fill="white"/>
        <path d="M131.149 66.8892H129.808L129.467 67.1117L124.23 79.2625L124.571 79.787H125.888L126.229 79.5566L127.888 75.7102H133.038L134.696 79.5566L135.037 79.787H136.346L136.688 79.2625L131.49 67.1117L131.149 66.8892ZM128.681 73.9063L130.475 69.6706L132.244 73.9063H128.681Z" fill="white"/>
        <path d="M141.726 39.2023V34.2593V21.6714H137.576L137.568 47.4989H141.726V39.2023Z" fill="white"/>
        <path d="M58.1552 66.8892L57.7822 67.2627V79.4135L58.1552 79.787H64.8126L65.1855 79.4135V78.3089L64.8126 77.9354H59.7422V74.2162H64.6301L65.003 73.8427V72.746L64.6301 72.3725H59.7422V68.7328H64.8126L65.1855 68.3593V67.2627L64.8126 66.8892H58.1552Z" fill="white"/>
        <path d="M79.9605 75.8693L79.6431 76.0441C79.244 76.6876 78.6878 77.2186 78.027 77.5871C77.3661 77.9556 76.6224 78.1493 75.866 78.1501C75.2301 78.1565 74.5993 78.0353 74.0109 77.7936C73.4225 77.5518 72.8884 77.1945 72.4402 76.7426C71.992 76.2908 71.6387 75.7536 71.4012 75.1627C71.1637 74.5718 71.0468 73.9393 71.0575 73.3024C71.0411 72.6718 71.1531 72.0444 71.3865 71.4585C71.62 70.8726 71.9701 70.3404 72.4155 69.8944C72.8609 69.4483 73.3923 69.0977 73.9773 68.8638C74.5623 68.63 75.1888 68.5179 75.8184 68.5343C76.5777 68.5155 77.3288 68.6937 77.999 69.0516C78.6692 69.4095 79.2355 69.9348 79.6431 70.5766L79.9525 70.7515H81.3967L81.73 70.219C81.1865 69.1214 80.3379 68.2045 79.2863 67.5785C78.2348 66.9526 77.025 66.6442 75.8026 66.6906C74.9249 66.6746 74.0527 66.8321 73.2357 67.1539C72.4188 67.4757 71.6732 67.9555 71.0416 68.5661C69.797 69.8402 69.1001 71.5518 69.1001 73.3342C69.1001 75.1167 69.797 76.8282 71.0416 78.1024C72.3266 79.3208 74.0331 79.993 75.8026 79.9779C77.0164 79.982 78.2076 79.6493 79.2441 79.0166C80.2805 78.384 81.1218 77.4761 81.6744 76.3938L81.3412 75.8455L79.9605 75.8693Z" fill="white"/>
        <path d="M15.5445 66.8892H12.2118L11.8389 67.2548V79.4136L12.2118 79.7871H15.6238C16.6413 79.8453 17.6598 79.6926 18.6155 79.3384C19.5713 78.9843 20.4438 78.4363 21.1783 77.7288C22.2893 76.5319 22.8974 74.9524 22.8764 73.3183C22.9016 71.7967 22.387 70.3155 21.4243 69.1382C20.3372 67.8269 18.4646 66.8813 15.5445 66.8892ZM19.7024 76.4255C19.16 76.9387 18.5181 77.3347 17.8165 77.589C17.1149 77.8433 16.3685 77.9504 15.6238 77.9036H13.7988V68.7329H15.5445C17.7821 68.7329 19.0914 69.4402 19.877 70.3223C20.5689 71.1562 20.9404 72.2103 20.9244 73.2944C20.9473 74.4685 20.5084 75.6045 19.7024 76.4573V76.4255Z" fill="white"/>
        <path d="M0.372943 66.8892L0 67.2627V79.4135L0.372943 79.787H7.03037L7.40331 79.4135V78.3089L7.03037 77.9354H1.95993V74.2162H6.8558L7.22874 73.8427V72.746L6.8558 72.3725H1.95993V68.7328H7.03037L7.40331 68.3593V67.2627L7.03037 66.8892H0.372943Z" fill="white"/>
        <path d="M15.0685 43.3345H0V47.4987H43.2058L43.2138 43.3345H22.7098H15.0685Z" fill="white"/>
        <path d="M34.5806 66.8893L34.2076 67.2548V74.6455C34.2281 75.3635 34.1095 76.0786 33.8585 76.7514C33.691 77.1476 33.4161 77.489 33.065 77.7368C32.6302 78.03 32.1126 78.1749 31.5891 78.1501C31.0792 78.1643 30.5774 78.0199 30.1528 77.7368C29.6569 77.3385 29.3216 76.774 29.2086 76.1475C29.097 75.6522 29.0464 75.1451 29.0578 74.6375V67.2469L28.6849 66.8813H27.4629L27.09 67.2469V74.6375C26.9826 76.1084 27.4363 77.5654 28.3595 78.7143C28.7843 79.1454 29.2949 79.4821 29.8582 79.7025C30.4214 79.923 31.0247 80.0222 31.6287 79.9938C32.235 80.0265 32.8412 79.9301 33.4075 79.7109C33.9737 79.4918 34.4872 79.1548 34.9138 78.7223C35.8399 77.5745 36.2965 76.1174 36.1914 74.6455V67.2548L35.8184 66.8893H34.5806Z" fill="white"/>
        <path d="M47.0226 66.8892L46.6497 67.2627V68.3593L47.0226 68.7328H49.419V79.4135L49.7919 79.787H51.006L51.3789 79.4135V68.7328H53.7753L54.1482 68.3593V67.2627L53.7753 66.8892H47.0226Z" fill="white"/>
        <path d="M15.0685 0H0V4.15624H43.2058L43.2138 0H22.7098H15.0685Z" fill="white"/>
        <path d="M15.0685 21.6714H0V25.8276H43.2058L43.2138 21.6714H22.7098H15.0685Z" fill="white"/>
    </g>
    <defs>
        <clipPath id="clip0_115_922">
            <rect width="162" height="80" fill="white"/>
        </clipPath>
    </defs>
</svg>
