<svg width="24" height="24" viewBox="0 0 24 24" fill="none" xmlns="http://www.w3.org/2000/svg">
    <path d="M9.48665 6.29508H18.8872C19.7359 6.29508 20.454 7.01639 20.454 7.86885V8.91803H21.6291C22.4777 8.91803 23 9.70492 22.9347 10.4918L21.8249 18.8197C21.6944 19.4754 21.1721 20 20.5193 20C14.5134 20 8.5727 20 2.56677 20C1.7181 20 1 19.3443 1 18.4262V5.57377C1 4.72131 1.7181 4 2.56677 4H7.46291C8.31157 4 9.02967 4.72131 9.02967 5.57377V5.83607C9.02967 6.09836 9.22552 6.29508 9.48665 6.29508ZM5.04748 10.0328C4.9822 10.0328 4.91691 10.0984 4.85163 10.2295L3.28487 18.5574C3.28487 18.6885 3.28487 18.8852 3.48071 18.8852H20.5193C20.6499 18.8852 20.7151 18.8197 20.7151 18.6885L21.8249 10.3607C21.8249 10.2295 21.7596 10.0328 21.6291 10.0328C16.0801 10.0328 10.5964 10.0328 5.04748 10.0328ZM18.8872 7.40984H9.48665C8.63798 7.40984 7.91988 6.7541 7.91988 5.83607V5.57377C7.91988 5.31148 7.72404 5.11475 7.46291 5.11475H2.56677C2.30564 5.11475 2.10979 5.31148 2.10979 5.57377V18.4262C2.10979 18.4918 2.10979 18.5574 2.17507 18.6229C2.17507 15.9344 3.28487 12.7213 3.80712 10.0328C3.93769 9.37705 4.45994 8.91803 5.04748 8.91803H19.3442V7.86885C19.3442 7.67213 19.0831 7.40984 18.8872 7.40984Z" fill="black"/>
</svg>
