<svg width="25" height="24" viewBox="0 0 25 24" fill="none" xmlns="http://www.w3.org/2000/svg">
    <path d="M8.95834 9.75C8.95834 9.84946 8.91883 9.94484 8.8485 10.0152C8.77818 10.0855 8.68279 10.125 8.58334 10.125C8.48388 10.125 8.3885 10.0855 8.31817 10.0152C8.24784 9.94484 8.20834 9.84946 8.20834 9.75C8.20834 9.65055 8.24784 9.55516 8.31817 9.48484C8.3885 9.41451 8.48388 9.375 8.58334 9.375C8.68279 9.375 8.77818 9.41451 8.8485 9.48484C8.91883 9.55516 8.95834 9.65055 8.95834 9.75ZM8.95834 9.75H8.58334M12.7083 9.75C12.7083 9.84946 12.6688 9.94484 12.5985 10.0152C12.5282 10.0855 12.4328 10.125 12.3333 10.125C12.2339 10.125 12.1385 10.0855 12.0682 10.0152C11.9978 9.94484 11.9583 9.84946 11.9583 9.75C11.9583 9.65055 11.9978 9.55516 12.0682 9.48484C12.1385 9.41451 12.2339 9.375 12.3333 9.375C12.4328 9.375 12.5282 9.41451 12.5985 9.48484C12.6688 9.55516 12.7083 9.65055 12.7083 9.75ZM12.7083 9.75H12.3333M16.4583 9.75C16.4583 9.84946 16.4188 9.94484 16.3485 10.0152C16.2782 10.0855 16.1828 10.125 16.0833 10.125C15.9839 10.125 15.8885 10.0855 15.8182 10.0152C15.7478 9.94484 15.7083 9.84946 15.7083 9.75C15.7083 9.65055 15.7478 9.55516 15.8182 9.48484C15.8885 9.41451 15.9839 9.375 16.0833 9.375C16.1828 9.375 16.2782 9.41451 16.3485 9.48484C16.4188 9.55516 16.4583 9.65055 16.4583 9.75ZM16.4583 9.75H16.0833M2.58334 12.76C2.58334 14.36 3.70634 15.754 5.29034 15.987C6.37734 16.147 7.47534 16.27 8.58334 16.356V21L12.7673 16.817C12.9745 16.6107 13.253 16.4918 13.5453 16.485C15.4969 16.437 17.4439 16.2707 19.3753 15.987C20.9603 15.754 22.0833 14.361 22.0833 12.759V6.741C22.0833 5.139 20.9603 3.746 19.3763 3.513C17.0443 3.17072 14.6904 2.99926 12.3333 3C9.94134 3 7.58934 3.175 5.29034 3.513C3.70634 3.746 2.58334 5.14 2.58334 6.741V12.759V12.76Z" stroke="white" stroke-width="1.5" stroke-linecap="round" stroke-linejoin="round"/>
</svg>
