<svg width="107" height="28" viewBox="0 0 107 28" fill="none" xmlns="http://www.w3.org/2000/svg">
    <path d="M1.89764 20H3.85764V13.644L6.48964 20H7.97364L10.5916 13.644V20H12.5516V10.228H10.3396L7.23164 17.494L4.12364 10.228H1.89764V20ZM17.7934 17.662L15.7914 12.244H13.5934L16.7014 19.804L15.0214 23.668H17.1074L21.9094 12.244H19.8234L17.7934 17.662Z" fill="white"/>
    <path d="M72.1072 15.1C72.1072 18.026 74.2492 20.084 77.0632 20.084C79.2332 20.084 80.9972 18.936 81.6552 16.92H79.4012C78.9392 17.872 78.0992 18.334 77.0492 18.334C75.3412 18.334 74.1232 17.074 74.1232 15.1C74.1232 13.112 75.3412 11.866 77.0492 11.866C78.0992 11.866 78.9392 12.328 79.4012 13.266H81.6552C80.9972 11.264 79.2332 10.102 77.0632 10.102C74.2492 10.102 72.1072 12.174 72.1072 15.1ZM82.8253 16.094C82.8253 18.516 84.3933 20.126 86.3533 20.126C87.5853 20.126 88.4673 19.538 88.9293 18.866V20H90.9033V12.244H88.9293V13.35C88.4673 12.706 87.6133 12.118 86.3673 12.118C84.3933 12.118 82.8253 13.672 82.8253 16.094ZM88.9293 16.122C88.9293 17.592 87.9493 18.404 86.8713 18.404C85.8213 18.404 84.8273 17.564 84.8273 16.094C84.8273 14.624 85.8213 13.84 86.8713 13.84C87.9493 13.84 88.9293 14.652 88.9293 16.122ZM94.7776 16.136C94.7776 14.638 95.4776 14.19 96.6396 14.19H97.1576V12.132C96.0796 12.132 95.2676 12.65 94.7776 13.448V12.244H92.8176V20H94.7776V16.136ZM97.9737 16.094C97.9737 18.516 99.5417 20.126 101.516 20.126C102.734 20.126 103.602 19.566 104.064 18.852V20H106.052V9.64H104.064V13.322C103.532 12.594 102.552 12.118 101.53 12.118C99.5417 12.118 97.9737 13.672 97.9737 16.094ZM104.078 16.122C104.078 17.592 103.098 18.404 102.02 18.404C100.97 18.404 99.9757 17.564 99.9757 16.094C99.9757 14.624 100.97 13.84 102.02 13.84C103.098 13.84 104.078 14.652 104.078 16.122Z" fill="white"/>
    <path d="M33.584 8.816H27.104V20H33.584V18.176H29.344V15.216H33.104V13.44H29.344V10.64H33.584V8.816ZM35.0436 15.536C35.0436 18.304 36.8356 20.144 39.0916 20.144C40.4836 20.144 41.4756 19.504 42.0036 18.688V20H44.2756V8.16H42.0036V12.368C41.3956 11.536 40.2756 10.992 39.1076 10.992C36.8356 10.992 35.0436 12.768 35.0436 15.536ZM42.0196 15.568C42.0196 17.248 40.8996 18.176 39.6676 18.176C38.4676 18.176 37.3316 17.216 37.3316 15.536C37.3316 13.856 38.4676 12.96 39.6676 12.96C40.8996 12.96 42.0196 13.888 42.0196 15.568Z" fill="white"/>
    <path fill-rule="evenodd" clip-rule="evenodd" d="M66.861 11.3015C65.6147 10.4097 64.3143 9.59559 62.9671 8.86397L62.966 8.86807C61.4314 8.028 59.6259 7.83196 57.9467 8.32308C56.3097 8.80187 54.9235 9.89548 54.0766 11.372V9.74024C54.378 9.38944 54.7123 9.06664 55.0754 8.77647C55.8462 8.16055 56.7316 7.70394 57.6803 7.43314C58.629 7.16235 59.6221 7.08277 60.6019 7.19904C61.5816 7.31532 62.5285 7.62511 63.3874 8.11044C64.4177 8.67502 65.4213 9.28677 66.3952 9.94373C66.5918 10.3689 66.7479 10.8225 66.861 11.3015ZM66.9801 11.9168C65.6381 10.928 64.2286 10.0334 62.7617 9.23982C61.3262 8.45409 59.6373 8.27079 58.0667 8.73025C56.496 9.1897 55.1722 10.2543 54.3865 11.6898C54.2699 11.9029 54.1665 12.1215 54.0766 12.3446V16.9602C54.6076 18.2771 55.5799 19.3771 56.8365 20.0649C57.0801 20.1934 57.3212 20.3265 57.5596 20.464H59.1991C58.5695 20.0436 57.9175 19.6563 57.2456 19.3039C56.0114 18.6267 55.096 17.4879 54.6999 16.137C54.3039 14.7862 54.4595 13.3334 55.1326 12.097C55.6889 11.0817 56.5576 10.2817 57.5998 9.80886V9.00818H59.2688C60.4061 9.00818 61.3436 9.29492 62.0439 9.83127C62.1426 9.87729 62.2402 9.92647 62.3365 9.97878C63.9999 10.8722 65.5851 11.9023 67.0761 13.0579C67.0687 12.6653 67.0364 12.2845 66.9801 11.9168ZM67.0705 13.5943C65.7481 12.5445 64.3467 11.5977 62.8785 10.7624C63.1046 11.1336 63.2708 11.5593 63.3728 12.0352C64.6315 12.8059 65.8335 13.6655 66.9698 14.6074C67.0229 14.2797 67.0567 13.9417 67.0705 13.5943ZM66.8771 15.0858C65.7979 14.1748 64.6561 13.3409 63.4602 12.5902C63.4817 12.7963 63.4926 13.0104 63.4926 13.232C63.4926 13.362 63.4888 13.4892 63.4814 13.6137C64.5778 14.3323 65.6236 15.1257 66.6114 15.9885C66.7177 15.6986 66.8065 15.3974 66.8771 15.0858ZM66.437 16.4192C65.488 15.5791 64.484 14.8039 63.4319 14.0987C63.3849 14.418 63.3111 14.7164 63.2114 14.9929C64.1949 15.6693 65.1328 16.4105 66.0188 17.2117C66.1746 16.9596 66.3142 16.6951 66.437 16.4192ZM65.7987 17.5445C64.9324 16.7593 64.0152 16.0328 63.0532 15.3697C62.9262 15.6321 62.7726 15.8709 62.5936 16.0852C63.5299 16.7304 64.4217 17.4384 65.263 18.2047C65.4559 17.9969 65.6347 17.7766 65.7987 17.5445ZM64.961 18.5087C64.1226 17.7438 63.2325 17.038 62.2973 16.3964C62.0764 16.6 61.8268 16.7744 61.5498 16.9184C62.5148 17.5637 63.431 18.2794 64.291 19.0599C64.528 18.8899 64.7516 18.706 64.961 18.5087ZM63.9228 19.3057C63.0339 18.5058 62.0844 17.7761 61.0829 17.123C60.723 17.254 60.3264 17.3418 59.8956 17.3845C61.0408 18.0691 62.122 18.8546 63.1263 19.7313C63.4047 19.6046 63.6704 19.4625 63.9228 19.3057ZM62.7042 19.9077C61.5888 18.9614 60.3821 18.1261 59.1011 17.4146H57.5998V16.3298C57.3935 16.0597 57.2386 15.7536 57.1431 15.4269C57.0411 15.0781 57.0088 14.7126 57.0482 14.3513C57.0876 13.99 57.1977 13.64 57.3724 13.3213C57.4398 13.1986 57.5159 13.082 57.5998 12.9722V11.7826C57.5777 11.7996 57.5556 11.8169 57.5338 11.8345C57.1637 12.1322 56.8558 12.4999 56.6278 12.9167C56.3998 13.3334 56.2561 13.7909 56.2049 14.2632C56.1537 14.7354 56.1961 15.2132 56.3295 15.6691C56.463 16.1249 56.6849 16.5501 56.9826 16.9202C57.2804 17.2904 57.6481 17.5982 58.0648 17.8262C58.8859 18.2759 60.3305 19.0687 61.7699 20.1995C62.0939 20.1195 62.4056 20.0219 62.7042 19.9077ZM61.2237 20.3155C59.9055 19.3186 58.613 18.6092 57.8564 18.1968C57.3905 17.9418 56.9795 17.5974 56.6467 17.1835C56.314 16.7695 56.0661 16.294 55.9172 15.7842C55.7683 15.2743 55.7213 14.7402 55.779 14.2122C55.8366 13.6842 55.9977 13.1728 56.2531 12.7071C56.5082 12.2412 56.8525 11.8301 57.2665 11.4974C57.3736 11.4113 57.4849 11.3308 57.5998 11.2563V10.2624C57.2863 10.4186 56.9897 10.6084 56.7153 10.8289C56.2144 11.2316 55.7978 11.729 55.4891 12.2927C55.1804 12.8564 54.9858 13.4754 54.9164 14.1143C54.8469 14.7533 54.904 15.3996 55.0844 16.0165C55.4486 17.2623 56.2928 18.3124 57.4313 18.9358C58.298 19.3856 59.132 19.8934 59.9276 20.4552C60.3769 20.4369 60.8093 20.3898 61.2237 20.3155ZM57.5998 13.8501C57.4298 14.3162 57.4113 14.8275 57.5522 15.3094C57.5666 15.3585 57.5824 15.4069 57.5998 15.4546V13.8501ZM56.6747 20.464C56.6601 20.4562 56.6456 20.4485 56.631 20.4408C55.5564 19.8525 54.6763 18.9823 54.0766 17.9369V19.4477C54.3979 19.8215 54.7548 20.1618 55.1419 20.464H56.6747ZM54.4945 20.464C54.3502 20.3325 54.2108 20.1957 54.0766 20.0536V20.464H54.4945ZM54.0766 9.23915C54.3225 8.97838 54.5864 8.73414 54.8668 8.50836C55.6732 7.859 56.5998 7.37509 57.5936 7.08436C58.5873 6.79362 59.6286 6.70176 60.6579 6.81404C61.6871 6.92633 62.6841 7.24054 63.5918 7.7387C64.2965 8.12785 65.0567 8.57207 65.8413 9.07161C65.9279 9.17011 66.0128 9.27004 66.096 9.37135C64.8639 7.27132 62.5378 6 59.4954 6L58.7625 6C57.9238 6.09825 57.097 6.31861 56.3093 6.66007C55.4914 7.01464 54.7399 7.48923 54.0766 8.06245V9.23915ZM54.0766 7.51948C54.5893 7.10917 55.1474 6.75308 55.7425 6.45918C56.1024 6.2814 56.4722 6.12821 56.8494 6H54.8129C54.5612 6.14499 54.3155 6.30115 54.0766 6.46814V7.51948ZM51.5233 9.05987V10.7491C50.575 12.7646 50.3918 15.0639 51.0204 17.214C51.1542 17.6719 51.3227 18.1156 51.5233 18.5419V20.2701C51.038 19.553 50.6451 18.7721 50.358 17.9449C49.6926 16.0284 49.6258 13.9549 50.1665 11.9996C50.4577 10.9465 50.9178 9.95453 51.5233 9.05987ZM51.5233 8.28579V6.97437C50.8961 7.64934 50.3498 8.40382 49.9006 9.22404L49.9065 9.23451C48.8293 11.205 48.3646 13.4521 48.5721 15.6882C48.7295 17.3847 49.2683 19.0162 50.1399 20.464H51.1328C50.5444 19.589 50.0893 18.6256 49.7871 17.6048C49.2337 15.7347 49.2158 13.7469 49.7356 11.8672C50.0961 10.5637 50.7051 9.34851 51.5233 8.28579ZM49.646 20.464C48.9735 19.289 48.5086 18.0036 48.2747 16.6644C47.9763 14.9563 48.0613 13.2032 48.5235 11.532C48.9857 9.86073 49.8135 8.31308 50.947 7.00094C51.1319 6.78696 51.3241 6.58012 51.5233 6.38074V6H50.7089C49.9656 6.785 49.3242 7.6666 48.8036 8.62487C48.489 9.19666 48.2207 9.79018 48 10.3998V18.9347C48.1892 19.4573 48.4135 19.9683 48.672 20.464H49.646ZM48.587 20.464C48.3875 20.3327 48.191 20.1949 48 20.0586V20.464H48.587ZM48 9.23699C48.5417 8.05644 49.257 6.9655 50.1203 6H48.9943C48.6343 6.44705 48.3022 6.9166 48 7.40602V9.23699ZM48 6.64286C48.1482 6.42446 48.3025 6.21009 48.4627 6H48V6.64286ZM51.5233 17.47C51.5225 17.4676 51.5217 17.4653 51.5208 17.4629C50.9006 15.636 50.9061 13.6625 51.5233 11.8498V17.47Z" fill="#FFC700"/>
</svg>
