<svg width="32" height="32" viewBox="0 0 32 32" fill="none" xmlns="http://www.w3.org/2000/svg">
    <path d="M26.534 7.00118C26.1673 7.01356 25.8196 7.17732 25.5647 7.45769C25.1291 7.92054 21.9407 11.4022 18.6803 14.9605C15.828 18.0733 13.5403 20.5671 12.6771 21.5036L6.27736 16.3183C6.13068 16.1967 5.9628 16.1072 5.78341 16.0548C5.60401 16.0025 5.41664 15.9884 5.2321 16.0133C5.04755 16.0383 4.86947 16.1018 4.70813 16.2002C4.54678 16.2986 4.40536 16.43 4.292 16.5867C4.17864 16.7435 4.0956 16.9225 4.04765 17.1135C3.9997 17.3045 3.98779 17.5037 4.01261 17.6996C4.03743 17.8956 4.09848 18.0843 4.19226 18.2551C4.28604 18.4258 4.41068 18.5751 4.55901 18.6944L11.9611 24.6873C12.2329 24.9105 12.572 25.0205 12.9148 24.9968C13.2575 24.9731 13.5804 24.8173 13.8227 24.5586C14.2582 24.0957 17.4466 20.614 20.707 17.0557C23.9675 13.4974 27.3 9.86254 27.5694 9.57626C27.775 9.36534 27.9154 9.09304 27.972 8.79542C28.0287 8.49779 27.9989 8.18889 27.8866 7.90966C27.7743 7.63043 27.5849 7.39404 27.3433 7.2318C27.1018 7.06957 26.8195 6.98913 26.534 7.00118Z" fill="#ACACAC"/>
</svg>
