<svg width="24" height="24" viewBox="0 0 24 24" fill="none" xmlns="http://www.w3.org/2000/svg">
    <path d="M12 20.5C12.9625 20.5 13.75 19.6923 13.75 18.7051H10.25C10.25 19.6923 11.0375 20.5 12 20.5ZM17.25 15.1154V10.6282C17.25 7.87308 15.8237 5.56667 13.3125 4.95641V4.34615C13.3125 3.60128 12.7263 3 12 3C11.2737 3 10.6875 3.60128 10.6875 4.34615V4.95641C8.185 5.56667 6.75 7.8641 6.75 10.6282V15.1154L5 16.9103V17.8077H19V16.9103L17.25 15.1154ZM15.5 16.0128H8.5V10.6282C8.5 8.40256 9.82125 6.58974 12 6.58974C14.1788 6.58974 15.5 8.40256 15.5 10.6282V16.0128Z" fill="#242424"/>
</svg>
