<svg width="12" height="12" viewBox="0 0 12 12" fill="none" xmlns="http://www.w3.org/2000/svg">
    <path d="M10.1049 1.4493C9.5088 0.850233 8.54241 0.850233 7.94633 1.4493L1.89518 7.53079C1.85371 7.57246 1.82377 7.62413 1.80814 7.68085L1.01239 10.5681C0.979667 10.6864 1.01292 10.8132 1.09931 10.9002C1.18582 10.987 1.31196 11.0204 1.42974 10.9876L4.30255 10.1878C4.35899 10.1721 4.4104 10.142 4.45187 10.1003L10.5029 4.01867C11.098 3.41921 11.098 2.44877 10.5029 1.8493L10.1049 1.4493ZM2.63422 7.75236L7.58661 2.775L9.1838 4.38019L4.23127 9.35755L2.63422 7.75236ZM2.31518 8.39576L3.5912 9.67832L1.82615 10.1698L2.31518 8.39576ZM10.0233 3.53665L9.66355 3.89817L8.06623 2.29284L8.42608 1.93132C8.75718 1.59857 9.29403 1.59857 9.62513 1.93132L10.0233 2.33132C10.3538 2.66448 10.3538 3.20363 10.0233 3.53665Z" fill="#242424" stroke="black" stroke-width="0.5"/>
</svg>
