<svg width="32" height="32" viewBox="0 0 32 32" fill="none" xmlns="http://www.w3.org/2000/svg">
    <path d="M1.73348 14.313C-1.14672 7.63765 4.06965 5.01074 6.95141 5.01074C8.54567 5.01074 9.13033 5.4826 9.75718 6.33276C9.75718 6.33276 10.7112 5.68647 12.0388 5.86834C14.4918 6.20439 16.8086 8.58611 14.7485 14.291" fill="#6E563D"/>
    <path d="M13.8806 13.9365C13.748 13.9365 13.6206 13.9578 13.5009 13.9963C13.4529 14.7134 13.2619 15.3911 12.9556 16.0013C13.1827 16.2561 13.5124 16.4173 13.8806 16.4173C14.5656 16.4173 15.121 15.862 15.121 15.1769C15.121 14.4919 14.5656 13.9365 13.8806 13.9365Z" fill="#E09C77"/>
    <path d="M2.98097 13.9963C2.86122 13.9578 2.73379 13.9365 2.60123 13.9365C1.91619 13.9365 1.36084 14.4919 1.36084 15.1769C1.36084 15.862 1.91619 16.4173 2.60123 16.4173C2.96941 16.4173 3.29908 16.256 3.52626 16.0013C3.21996 15.3911 3.0289 14.7135 2.98097 13.9963Z" fill="#F7B081"/>
    <path d="M28.8619 20.8272C31.5182 19.9295 31.7312 12.4935 30.6922 9.783C29.5909 6.91005 26.8359 5.01074 23.7591 5.01074C20.6823 5.01074 17.9273 6.91005 16.826 9.783C15.7869 12.4935 16.0001 19.9294 18.6563 20.8272H28.8619Z" fill="#A58260"/>
    <path d="M13.5142 12.6916C10.9589 12.2522 9.26216 9.71313 9.26216 9.71313C9.26216 9.71313 8.04852 12.6916 2.96777 12.6916V13.6399C2.96777 16.5522 5.32869 18.9131 8.24095 18.9131C11.1533 18.9131 13.5141 16.5521 13.5141 13.6399C13.5142 13.6399 13.5142 12.6916 13.5142 12.6916Z" fill="#FFC89F"/>
    <path d="M29.0322 12.6916C26.477 12.2522 24.7802 9.71313 24.7802 9.71313C24.7802 9.71313 23.5666 12.6916 18.4858 12.6916V13.6399C18.4858 16.5522 20.8467 18.9131 23.759 18.9131C26.6713 18.9131 29.0322 16.5521 29.0322 13.6399V12.6916H29.0322Z" fill="#FFC89F"/>
    <path d="M16 26.6906H0.481934V26.6721C0.481934 22.3869 3.95574 18.9131 8.24096 18.9131C12.5262 18.9131 16 22.3869 16 26.6721V26.6906Z" fill="#8CC7EC"/>
    <path d="M10.194 19.1611C9.56997 18.9993 8.91556 18.9131 8.24089 18.9131C7.56629 18.9131 6.91182 18.9993 6.28784 19.1611C6.4099 20.1315 7.23743 20.8822 8.24089 20.8822C9.24436 20.8822 10.0719 20.1315 10.194 19.1611Z" fill="#E09C77"/>
    <path d="M31.5181 26.6906H16V26.6721C16 22.3869 19.4739 18.9131 23.759 18.9131C28.0442 18.9131 31.518 22.3869 31.518 26.6721V26.6906H31.5181Z" fill="#FD7DAD"/>
    <path d="M25.712 19.1611C25.088 18.9993 24.4336 18.9131 23.759 18.9131C23.0844 18.9131 22.4299 18.9993 21.8059 19.1611C21.928 20.1315 22.7555 20.8822 23.759 20.8822C24.7624 20.8822 25.59 20.1315 25.712 19.1611Z" fill="#E09C77"/>
    <path d="M20.7599 13.8223C20.3409 13.8223 20 14.1632 20 14.5823C20 15.0013 20.3409 15.3422 20.7599 15.3422C21.179 15.3422 21.5199 15.0013 21.5199 14.5823C21.5199 14.1632 21.179 13.8223 20.7599 13.8223Z" fill="black"/>
    <path d="M27.28 13.8223C26.861 13.8223 26.52 14.1632 26.52 14.5823C26.52 15.0013 26.861 15.3422 27.28 15.3422C27.6991 15.3422 28.04 15.0013 28.04 14.5823C28.04 14.1632 27.6991 13.8223 27.28 13.8223Z" fill="black"/>
    <path d="M4.76 13.8223C4.34094 13.8223 4 14.1632 4 14.5823C4 15.0013 4.34094 15.3422 4.76 15.3422C5.17906 15.3422 5.51994 15.0013 5.51994 14.5823C5.51994 14.1632 5.17906 13.8223 4.76 13.8223Z" fill="black"/>
    <path d="M11.28 13.8223C10.861 13.8223 10.52 14.1632 10.52 14.5823C10.52 15.0013 10.861 15.3422 11.28 15.3422C11.6991 15.3422 12.04 15.0013 12.04 14.5823C12.04 14.1632 11.6991 13.8223 11.28 13.8223Z" fill="black"/>
    <path d="M9.21899 14.9198C9.0525 14.7746 8.79982 14.7919 8.65466 14.9585C8.50907 15.1255 8.29895 15.2213 8.07812 15.2213C7.85728 15.2213 7.64716 15.1255 7.50157 14.9585C7.35646 14.7919 7.10374 14.7746 6.93724 14.9198C6.77069 15.0649 6.75336 15.3176 6.89853 15.4841C7.19605 15.8255 7.62599 16.0213 8.07806 16.0213C8.53013 16.0213 8.96008 15.8255 9.2576 15.4841C9.40287 15.3176 9.38554 15.0649 9.21899 14.9198Z" fill="black"/>
    <path d="M25.219 14.9198C25.0525 14.7746 24.7998 14.7919 24.6547 14.9585C24.5091 15.1255 24.299 15.2213 24.0781 15.2213C23.8573 15.2213 23.6472 15.1255 23.5016 14.9585C23.3565 14.7919 23.1037 14.7746 22.9372 14.9198C22.7707 15.0649 22.7534 15.3176 22.8985 15.4841C23.196 15.8255 23.626 16.0213 24.0781 16.0213C24.5301 16.0213 24.9601 15.8255 25.2576 15.4841C25.4029 15.3176 25.3855 15.0649 25.219 14.9198Z" fill="black"/>
</svg>
