<svg width="42" height="42" viewBox="0 0 42 42" fill="none" xmlns="http://www.w3.org/2000/svg">
    <path fill-rule="evenodd" clip-rule="evenodd" d="M8.75 10.9375C7.47365 10.9375 6.24957 11.4445 5.34705 12.347C4.44453 13.2496 3.9375 14.4736 3.9375 15.75V31.5C3.9375 32.7764 4.44453 34.0004 5.34705 34.903C6.24957 35.8055 7.47365 36.3125 8.75 36.3125H33.25C34.5264 36.3125 35.7504 35.8055 36.653 34.903C37.5555 34.0004 38.0625 32.7764 38.0625 31.5V15.75C38.0625 14.4736 37.5555 13.2496 36.653 12.347C35.7504 11.4445 34.5264 10.9375 33.25 10.9375H8.75ZM28.875 21.4375C28.2948 21.4375 27.7384 21.668 27.3282 22.0782C26.918 22.4884 26.6875 23.0448 26.6875 23.625C26.6875 24.2052 26.918 24.7616 27.3282 25.1718C27.7384 25.582 28.2948 25.8125 28.875 25.8125C29.4552 25.8125 30.0116 25.582 30.4218 25.1718C30.832 24.7616 31.0625 24.2052 31.0625 23.625C31.0625 23.0448 30.832 22.4884 30.4218 22.0782C30.0116 21.668 29.4552 21.4375 28.875 21.4375Z" fill="white"/>
    <path d="M28.8488 5.37096C29.3669 5.23288 29.9098 5.2157 30.4357 5.32075C30.9615 5.4258 31.4562 5.65026 31.8815 5.97682C32.3068 6.30338 32.6514 6.72329 32.8887 7.20416C33.126 7.68503 33.2496 8.21398 33.25 8.75021H15.75L28.8488 5.37096Z" fill="white"/>
</svg>
