<svg width="24" height="24" viewBox="0 0 24 24" fill="none" xmlns="http://www.w3.org/2000/svg">
    <g clip-path="url(#clip0_453_7905)">
        <path d="M20.1684 6.08828H18.7337C18.0521 6.08828 17.411 5.82284 16.9289 5.34068L16.2845 4.69628C15.7915 4.20332 15.1358 3.93164 14.4386 3.93164H9.67416C8.93952 3.93164 8.23488 4.24364 7.74096 4.78772L7.32024 5.25116C6.8376 5.783 6.1488 6.08804 5.43024 6.08804H3.95472C2.60112 6.08804 1.5 7.18916 1.5 8.54276V17.6131C1.5 18.9667 2.60112 20.0678 3.95472 20.0678H20.1684C21.522 20.0678 22.6231 18.9667 22.6231 17.6131V8.543C22.6231 7.1894 21.522 6.08828 20.1684 6.08828ZM21.3797 17.6133C21.3797 18.2812 20.8363 18.8244 20.1686 18.8244H3.95496C3.28704 18.8244 2.74392 18.281 2.74392 17.6133V8.543C2.74392 7.87508 3.28728 7.33196 3.95496 7.33196H5.43048C6.49896 7.33196 7.52328 6.87836 8.24112 6.08732L8.66184 5.62388C8.92056 5.339 9.28944 5.17556 9.67416 5.17556H14.4389C14.8039 5.17556 15.1471 5.31764 15.4054 5.57588L16.0498 6.22028C16.7666 6.93716 17.7199 7.33196 18.7339 7.33196H20.1686C20.8366 7.33196 21.3797 7.87532 21.3797 8.543V17.6133Z" fill="#242424"/>
        <path d="M20.1684 6.08828H18.7337C18.0521 6.08828 17.411 5.82284 16.9289 5.34068L16.2845 4.69628C15.7915 4.20332 15.1358 3.93164 14.4386 3.93164H9.67416C8.93952 3.93164 8.23488 4.24364 7.74096 4.78772L7.32024 5.25116C6.8376 5.783 6.1488 6.08804 5.43024 6.08804H3.95472C2.60112 6.08804 1.5 7.18916 1.5 8.54276V17.6131C1.5 18.9667 2.60112 20.0678 3.95472 20.0678H20.1684C21.522 20.0678 22.6231 18.9667 22.6231 17.6131V8.543C22.6231 7.1894 21.522 6.08828 20.1684 6.08828ZM21.3797 17.6133C21.3797 18.2812 20.8363 18.8244 20.1686 18.8244H3.95496C3.28704 18.8244 2.74392 18.281 2.74392 17.6133V8.543C2.74392 7.87508 3.28728 7.33196 3.95496 7.33196H5.43048C6.49896 7.33196 7.52328 6.87836 8.24112 6.08732L8.66184 5.62388C8.92056 5.339 9.28944 5.17556 9.67416 5.17556H14.4389C14.8039 5.17556 15.1471 5.31764 15.4054 5.57588L16.0498 6.22028C16.7666 6.93716 17.7199 7.33196 18.7339 7.33196H20.1686C20.8366 7.33196 21.3797 7.87532 21.3797 8.543V17.6133Z" stroke="#242424"/>
        <circle cx="12.375" cy="12.375" r="3.475" stroke="#242424" stroke-width="1.3"/>
    </g>
    <defs>
        <clipPath id="clip0_453_7905">
            <rect width="24" height="24" fill="white"/>
        </clipPath>
    </defs>
</svg>
