<svg width="46" height="46" viewBox="0 0 46 46" fill="none" xmlns="http://www.w3.org/2000/svg">
    <path fill-rule="evenodd" clip-rule="evenodd" d="M14.4565 23.1711C14.4565 23.7736 14.945 24.262 15.5475 24.262L21.3656 24.262L21.3656 30.0801C21.3656 30.6826 21.854 31.171 22.4565 31.171C23.059 31.171 23.5474 30.6826 23.5474 30.0801L23.5474 24.262L29.3656 24.262C29.9681 24.262 30.4565 23.7736 30.4565 23.1711C30.4565 22.5686 29.9681 22.0802 29.3656 22.0802H23.5474L23.5474 16.2619C23.5474 15.6594 23.059 15.171 22.4565 15.171C21.854 15.171 21.3656 15.6594 21.3656 16.2619L21.3656 22.0802H15.5475C14.945 22.0802 14.4565 22.5686 14.4565 23.1711Z" fill="white"/>
    <mask id="mask0_453_1647" style="mask-type:luminance" maskUnits="userSpaceOnUse" x="12" y="13" width="21" height="20">
        <path fill-rule="evenodd" clip-rule="evenodd" d="M12.8496 23C12.8496 23.7364 13.4466 24.3334 14.1829 24.3334H21.2941V31.4445C21.2941 32.1809 21.891 32.7778 22.6274 32.7778C23.3638 32.7778 23.9607 32.1809 23.9607 31.4445V24.3334H31.0718C31.8082 24.3334 32.4052 23.7364 32.4052 23C32.4052 22.2637 31.8082 21.6667 31.0718 21.6667H23.9607V14.5556C23.9607 13.8192 23.3638 13.2223 22.6274 13.2223C21.891 13.2223 21.2941 13.8192 21.2941 14.5556V21.6667H14.1829C13.4466 21.6667 12.8496 22.2637 12.8496 23Z" fill="white"/>
    </mask>
    <g mask="url(#mask0_453_1647)">
    </g>
</svg>
