<svg width="53" height="53" viewBox="0 0 53 53" fill="none" xmlns="http://www.w3.org/2000/svg">
    <path d="M20.0072 4.2623C15.8334 4.24021 11.7701 8.25938 13.6251 13.2502H6.62467C5.4533 13.2502 4.32991 13.7155 3.50162 14.5438C2.67333 15.3721 2.20801 16.4955 2.20801 17.6669V22.0835C2.20801 22.6692 2.44067 23.2309 2.85481 23.6451C3.26896 24.0592 3.83065 24.2919 4.41634 24.2919H24.2913V17.6669H28.708V24.2919H48.583C49.1687 24.2919 49.7304 24.0592 50.1445 23.6451C50.5587 23.2309 50.7913 22.6692 50.7913 22.0835V17.6669C50.7913 16.4955 50.326 15.3721 49.4977 14.5438C48.6694 13.7155 47.546 13.2502 46.3747 13.2502H39.3743C41.958 6.02896 32.2413 0.927715 27.7584 7.15521L26.4997 8.83355L25.2409 7.11105C23.8497 5.14563 21.9284 4.28438 20.0072 4.2623ZM19.8747 8.83355C21.8401 8.83355 22.8338 11.2185 21.4426 12.6098C20.0513 14.001 17.6663 13.0073 17.6663 11.0419C17.6663 10.4562 17.899 9.8945 18.3131 9.48035C18.7273 9.06621 19.289 8.83355 19.8747 8.83355ZM33.1247 8.83355C35.0901 8.83355 36.0838 11.2185 34.6926 12.6098C33.3013 14.001 30.9163 13.0073 30.9163 11.0419C30.9163 10.4562 31.149 9.8945 31.5631 9.48035C31.9773 9.06621 32.539 8.83355 33.1247 8.83355ZM4.41634 26.5002V44.1669C4.41634 45.3383 4.88167 46.4617 5.70995 47.2899C6.53824 48.1182 7.66163 48.5835 8.83301 48.5835H44.1663C45.3377 48.5835 46.4611 48.1182 47.2894 47.2899C48.1177 46.4617 48.583 45.3383 48.583 44.1669V26.5002H28.708V44.1669H24.2913V26.5002H4.41634Z" fill="#312783"/>
</svg>
