<svg width="21" height="18" viewBox="0 0 21 18" fill="none" xmlns="http://www.w3.org/2000/svg">
    <path d="M3.00027 10.1798V12.9898C3.00027 13.7198 3.40027 14.3998 4.04027 14.7498L9.04027 17.4798C9.64027 17.8098 10.3603 17.8098 10.9603 17.4798L15.9603 14.7498C16.6003 14.3998 17.0003 13.7198 17.0003 12.9898V10.1798L10.9603 13.4798C10.3603 13.8098 9.64027 13.8098 9.04027 13.4798L3.00027 10.1798ZM9.04027 0.519785L0.610273 5.11979C-0.0797266 5.49979 -0.0797266 6.49979 0.610273 6.87979L9.04027 11.4798C9.64027 11.8098 10.3603 11.8098 10.9603 11.4798L19.0003 7.08979V12.9998C19.0003 13.5498 19.4503 13.9998 20.0003 13.9998C20.5503 13.9998 21.0003 13.5498 21.0003 12.9998V6.58979C21.0003 6.21979 20.8003 5.88979 20.4803 5.70979L10.9603 0.519785C10.6648 0.36221 10.3351 0.279785 10.0003 0.279785C9.66543 0.279785 9.33573 0.36221 9.04027 0.519785Z" fill="white"/>
</svg>
