<svg width="32" height="32" viewBox="0 0 32 32" fill="none" xmlns="http://www.w3.org/2000/svg">
    <path d="M26 26.4C26 27.2791 25.2573 28 24.3373 28H7.66266C6.74682 28 6 27.2818 6 26.4C6 21.0981 10.4772 16.8 16 16.8C21.5228 16.8 26 21.0981 26 26.4ZM16 18.9333C11.8912 18.9333 8.52662 21.9919 8.24176 25.8667H23.7582C23.4734 21.9919 20.1088 18.9333 16 18.9333ZM16 15.7333C12.6249 15.7333 9.88889 13.1067 9.88889 9.86667C9.88889 6.6266 12.6249 4 16 4C19.3751 4 22.1111 6.6266 22.1111 9.86667C22.1111 13.1067 19.3751 15.7333 16 15.7333ZM16 13.6C18.1478 13.6 19.8889 11.9285 19.8889 9.86667C19.8889 7.8048 18.1478 6.13333 16 6.13333C13.8522 6.13333 12.1111 7.8048 12.1111 9.86667C12.1111 11.9285 13.8522 13.6 16 13.6Z" fill="#242424"/>
</svg>
