<svg width="32" height="32" viewBox="0 0 32 32" fill="none" xmlns="http://www.w3.org/2000/svg">
    <g clip-path="url(#clip0_222_114)">
        <path d="M26.8089 8.11783H24.896C23.9872 8.11783 23.1324 7.76391 22.4896 7.12103L21.6304 6.26183C20.9731 5.60455 20.0988 5.24231 19.1692 5.24231H12.8166C11.8371 5.24231 10.8976 5.65831 10.239 6.38375L9.67804 7.00167C9.03452 7.71079 8.11612 8.11751 7.15804 8.11751H5.19068C3.38588 8.11751 1.91772 9.58567 1.91772 11.3905V23.4842C1.91772 25.289 3.38588 26.7572 5.19068 26.7572H26.8089C28.6137 26.7572 30.0819 25.289 30.0819 23.4842V11.3908C30.0819 9.58599 28.6137 8.11783 26.8089 8.11783ZM28.424 23.4845C28.424 24.3751 27.6995 25.0993 26.8092 25.0993H5.191C4.30044 25.0993 3.57628 24.3748 3.57628 23.4845V11.3908C3.57628 10.5002 4.30076 9.77607 5.191 9.77607H7.15836C8.583 9.77607 9.94876 9.17127 10.9059 8.11655L11.4668 7.49863C11.8118 7.11879 12.3036 6.90087 12.8166 6.90087H19.1696C19.6563 6.90087 20.1139 7.09031 20.4582 7.43463L21.3174 8.29383C22.2732 9.24967 23.5443 9.77607 24.8963 9.77607H26.8092C27.6998 9.77607 28.424 10.5005 28.424 11.3908V23.4845Z" fill="white"/>
        <path d="M20.1401 21.2957L18.7734 19.929C18.0793 20.5687 17.1798 20.9191 16.2233 20.9191C15.2329 20.9191 14.2873 20.5229 13.5613 19.8039C13.0557 19.2983 12.712 18.6583 12.5664 17.9527C12.5459 17.8525 12.5715 17.7488 12.6368 17.6685C12.704 17.5863 12.8035 17.5389 12.9094 17.5389H13.7081C13.7129 17.5389 13.7277 17.5389 13.735 17.521C13.7424 17.5031 13.7321 17.4928 13.7286 17.4896L11.5049 15.2583C11.4992 15.2525 11.4918 15.2496 11.4845 15.2496C11.4771 15.2496 11.4697 15.2525 11.464 15.2583L9.23294 17.4816C9.22942 17.4852 9.21918 17.4954 9.22654 17.5133C9.2339 17.5312 9.24862 17.5312 9.25342 17.5312H10.1952C10.3702 17.5312 10.5187 17.6637 10.5398 17.8391C10.6966 19.1239 11.2595 20.2832 12.167 21.1914C13.2576 22.2775 14.6982 22.8756 16.223 22.8756C17.6755 22.8887 19.0745 22.3402 20.1414 21.338L20.2531 21.1828L20.1401 21.2957Z" fill="white"/>
        <path d="M22.7456 16.2726L21.5936 16.3274L21.5792 16.1757C21.3046 13.3203 18.8445 11.1882 15.9725 11.32C14.6029 11.3926 13.3277 11.969 12.383 12.943L12.2794 13.103L12.3866 12.9843L13.6982 14.1709C13.7104 14.1827 13.7286 14.1773 13.7398 14.1664C14.3696 13.5443 15.1744 13.1907 16.0675 13.1437C16.1203 13.1414 16.1731 13.1402 16.2253 13.1402C17.9152 13.1402 19.3949 14.3571 19.7043 16.0282C19.7222 16.1245 19.6973 16.2243 19.6355 16.3018C19.5722 16.3814 19.4778 16.4298 19.376 16.4346L18.6314 16.4688C18.6266 16.4688 18.6118 16.4698 18.6054 16.488C18.599 16.5062 18.6096 16.5162 18.6131 16.5194L20.7709 18.4819L20.8118 18.48L22.7686 16.32C22.7718 16.3165 22.7818 16.3056 22.7734 16.288C22.7648 16.2717 22.7514 16.2733 22.7456 16.2726Z" fill="white"/>
    </g>
    <defs>
        <clipPath id="clip0_222_114">
            <rect width="32" height="32" fill="white"/>
        </clipPath>
    </defs>
</svg>
