<svg xmlns="http://www.w3.org/2000/svg" width="16" height="16" viewBox="0 0 16 16" fill="none">
    <path d="M9.38175 4.00313C9.45715 4.01364 9.52797 4.04545 9.58592 4.0948L13.5861 7.42831C13.6308 7.46586 13.6667 7.51274 13.6914 7.56564C13.716 7.61855 13.7288 7.67622 13.7288 7.73458C13.7288 7.79295 13.716 7.8506 13.6914 7.90351C13.6667 7.95642 13.6308 8.0033 13.5861 8.04085L9.58592 11.3743C9.52768 11.4223 9.45708 11.4527 9.38227 11.4623C9.30746 11.4718 9.23148 11.46 9.16309 11.4282C9.0947 11.3964 9.0367 11.3459 8.99576 11.2825C8.95483 11.2192 8.93263 11.1456 8.93173 11.0702V9.86178C8.53666 9.85112 7.8724 9.85311 6.87746 10.0243C5.56258 10.2504 3.95854 10.7686 2.66058 11.9036C2.59452 11.9602 2.51177 11.9938 2.42488 11.9992C2.338 12.0046 2.25173 11.9816 2.17915 11.9335C2.10657 11.8854 2.05166 11.815 2.02273 11.7329C1.99381 11.6508 1.99245 11.5615 2.01887 11.4785C3.13839 8.02934 6.4947 6.37852 8.93173 5.70322V4.40315C8.93129 4.34614 8.94304 4.28969 8.9662 4.23759C8.98935 4.18548 9.02338 4.13893 9.06599 4.10105C9.10861 4.06317 9.15883 4.03484 9.21329 4.01795C9.26774 4.00107 9.32518 3.99601 9.38175 4.00313ZM9.73177 5.2532V6.00324C9.73181 6.09195 9.70236 6.17817 9.64805 6.24832C9.59374 6.31847 9.51765 6.36857 9.43176 6.39076C7.47391 6.88639 4.79587 8.09941 3.39811 10.4118C4.53088 9.75879 5.72681 9.41171 6.74412 9.23675C8.15188 8.99463 9.28272 9.06678 9.35258 9.07008C9.45502 9.07543 9.55149 9.11991 9.62205 9.19436C9.69262 9.2688 9.7319 9.36752 9.73177 9.4701V10.216L12.7111 7.73667L9.73177 5.2532Z" fill="#BB6BD9"/>
</svg>