<svg width="33" height="32" viewBox="0 0 33 32" fill="none" xmlns="http://www.w3.org/2000/svg">
    <path d="M24.75 6.90907H23.2945V5.09093C23.2945 4.48827 22.806 4 22.2036 4C21.6009 4 21.1127 4.48827 21.1127 5.09093V6.90907H12.3873V5.09093C12.3873 4.48827 11.8988 4 11.2964 4C10.6937 4 10.2055 4.48827 10.2055 5.09093V6.90907H8.75C6.54067 6.90933 4.75053 8.6992 4.75 10.9091V13.0869V24C4.7508 26.2096 6.5404 27.9992 8.75 28H24.75C26.9596 27.9992 28.7492 26.2096 28.75 24.0003V13.0872V10.9093C28.7492 8.6992 26.9593 6.9096 24.75 6.90907ZM8.75 9.09067H10.2055V9.45467C10.2055 10.0571 10.6937 10.5456 11.2964 10.5456C11.8988 10.5456 12.3873 10.0571 12.3873 9.45467V9.09067H21.1129V9.45467C21.1129 10.0571 21.6012 10.5456 22.2039 10.5456C22.8063 10.5456 23.2948 10.0571 23.2948 9.45467V9.09067H24.75C25.7537 9.0928 26.5663 9.90507 26.5681 10.9093V11.9963H6.93187V10.9093C6.93373 9.9048 7.74627 9.0928 8.75 9.09067ZM24.75 25.8184H8.75C7.74627 25.8163 6.93347 25.0037 6.93187 24.0003V14.1776H26.5681V24.0003C26.5663 25.0037 25.7537 25.8163 24.75 25.8184Z" fill="#ACACAC"/>
</svg>
