<svg width="32" height="32" viewBox="0 0 32 32" fill="none" xmlns="http://www.w3.org/2000/svg">
    <g clip-path="url(#clip0_453_433)">
        <path d="M30.6163 11.6675H1.43555V29.9587H30.6163V11.6675Z" fill="#FAA900"/>
        <path d="M29.4017 14.6416H27.6609V17.6598H29.4017V14.6416Z" fill="#2D93BA"/>
        <path d="M27.6609 17.6602V14.6421H29.4018L27.6609 17.6602Z" fill="#27A2DB"/>
        <path d="M29.4017 19.3667H27.6609V22.3849H29.4017V19.3667Z" fill="#2D93BA"/>
        <path d="M27.6609 22.3844V19.3662H29.4018L27.6609 22.3844Z" fill="#27A2DB"/>
        <path d="M29.4017 24.0898H27.6609V27.1081H29.4017V24.0898Z" fill="#2D93BA"/>
        <path d="M27.6609 27.1085V24.0903H29.4018L27.6609 27.1085Z" fill="#27A2DB"/>
        <path d="M26.5343 14.6416H24.7935V17.6598H26.5343V14.6416Z" fill="#2D93BA"/>
        <path d="M24.7947 17.6602V14.6421H26.5356L24.7947 17.6602Z" fill="#27A2DB"/>
        <path d="M26.5343 19.3667H24.7935V22.3849H26.5343V19.3667Z" fill="#2D93BA"/>
        <path d="M24.7947 22.3844V19.3662H26.5356L24.7947 22.3844Z" fill="#27A2DB"/>
        <path d="M26.5343 24.0898H24.7935V27.1081H26.5343V24.0898Z" fill="#2D93BA"/>
        <path d="M24.7947 27.1085V24.0903H26.5356L24.7947 27.1085Z" fill="#27A2DB"/>
        <path d="M23.6705 14.6416H21.9297V17.6598H23.6705V14.6416Z" fill="#2D93BA"/>
        <path d="M21.9285 17.6602V14.6421H23.6695L21.9285 17.6602Z" fill="#27A2DB"/>
        <path d="M23.6705 19.3667H21.9297V22.3849H23.6705V19.3667Z" fill="#2D93BA"/>
        <path d="M21.9285 22.3844V19.3662H23.6695L21.9285 22.3844Z" fill="#27A2DB"/>
        <path d="M23.6705 24.0898H21.9297V27.1081H23.6705V24.0898Z" fill="#2D93BA"/>
        <path d="M21.9285 27.1085V24.0903H23.6695L21.9285 27.1085Z" fill="#27A2DB"/>
        <path d="M26.1924 6.19678H5.85994L1.43555 11.6668H30.6168L26.1924 6.19678Z" fill="#64798A"/>
        <path d="M21.3779 5.25932C21.3779 5.25932 20.0941 3.04464 17.7831 4.39269C17.1153 4.78224 17.3017 3.82607 16.2424 4.65504V0.829967C16.2424 0.829967 16.3366 2.24537 18.5855 1.18307C19.2261 0.880517 20.1904 0.541142 21.3779 1.02257C21.3779 1.02257 22.4371 2.56314 21.3779 5.25932Z" fill="#44C4A1"/>
        <path d="M16.3618 0.830078H15.5916V7.95552H16.3618V0.830078Z" fill="#DC8744"/>
        <path d="M20.5344 10.0098V29.9567H11.4189V10.0098V9.432L15.9767 6.58838L20.5344 9.432V10.0098Z" fill="#FCD462"/>
        <path d="M15.9347 14.903C17.6527 14.903 19.0454 13.5103 19.0454 11.7923C19.0454 10.0743 17.6527 8.68164 15.9347 8.68164C14.2167 8.68164 12.824 10.0743 12.824 11.7923C12.824 13.5103 14.2167 14.903 15.9347 14.903Z" fill="white"/>
        <path d="M15.9347 15.111C14.1047 15.111 12.616 13.6222 12.616 11.7923C12.616 9.96238 14.1047 8.47363 15.9347 8.47363C17.7646 8.47363 19.2533 9.96238 19.2533 11.7923C19.2533 13.6222 17.7646 15.111 15.9347 15.111ZM15.9347 8.88936C14.3339 8.88936 13.0317 10.1916 13.0317 11.7923C13.0317 13.393 14.3339 14.6952 15.9347 14.6952C17.5354 14.6952 18.8376 13.393 18.8376 11.7923C18.8376 10.1916 17.5354 8.88936 15.9347 8.88936Z" fill="#3A556A"/>
        <path d="M15.5349 9.17871H15.7521V9.77668H15.6563V9.26856H15.535V9.17871H15.5349Z" fill="#2F4859"/>
        <path d="M16.1534 9.41231C16.1705 9.38891 16.1791 9.36521 16.1791 9.34129C16.1791 9.31729 16.1699 9.29689 16.1517 9.28009C16.1335 9.26321 16.1104 9.25481 16.0825 9.25481C16.0334 9.25481 15.9926 9.27994 15.9602 9.33011L15.8789 9.28301C15.9051 9.24371 15.934 9.21401 15.9658 9.19406C15.9973 9.17411 16.0381 9.16406 16.0881 9.16406C16.138 9.16406 16.1818 9.17989 16.2193 9.21154C16.2569 9.24319 16.2758 9.28639 16.2758 9.34114C16.2758 9.37189 16.2678 9.40129 16.2519 9.42926C16.2358 9.45716 16.2065 9.49316 16.1638 9.53704L16.0235 9.67991H16.2947V9.77651H15.8857V9.69094L16.0671 9.50876C16.1074 9.46789 16.1363 9.43564 16.1534 9.41231Z" fill="#2F4859"/>
        <path d="M13.5203 12.0085C13.5734 12.0085 13.6124 11.9905 13.6375 11.9546C13.6626 11.9187 13.6754 11.8702 13.676 11.8092C13.6618 11.8252 13.6412 11.8401 13.6144 11.8541C13.5876 11.8681 13.5579 11.8751 13.5254 11.8751C13.4718 11.8751 13.4269 11.8573 13.3907 11.8216C13.3546 11.786 13.3364 11.7387 13.3364 11.6797C13.3364 11.6207 13.356 11.5732 13.395 11.5372C13.4342 11.5013 13.4833 11.4834 13.5427 11.4834C13.6385 11.4834 13.7046 11.5261 13.7411 11.6116C13.7616 11.6607 13.7719 11.716 13.7719 11.7776C13.7719 11.8392 13.7653 11.8905 13.7522 11.9316C13.7392 11.9727 13.7211 12.0051 13.6984 12.0291C13.6538 12.0758 13.5993 12.0992 13.5346 12.0992C13.4698 12.0992 13.4112 12.079 13.3588 12.0385L13.4093 11.9641C13.4223 11.9755 13.4399 11.9857 13.4619 11.9949C13.4837 12.0039 13.5033 12.0085 13.5203 12.0085ZM13.5388 11.7861C13.5733 11.7861 13.6021 11.7766 13.6252 11.7574C13.6483 11.7382 13.6598 11.7135 13.6598 11.683C13.6598 11.6525 13.6487 11.6262 13.6265 11.6043C13.6042 11.5823 13.5764 11.5714 13.543 11.5714C13.5096 11.5714 13.4822 11.5812 13.4605 11.6009C13.4388 11.6206 13.4279 11.6458 13.4279 11.6766C13.4279 11.7074 13.4377 11.7334 13.4574 11.7545C13.4771 11.7757 13.5042 11.7861 13.5388 11.7861Z" fill="#2F4859"/>
        <path d="M15.9746 13.9295C15.9216 13.9295 15.8824 13.9475 15.8574 13.9834C15.8323 14.0193 15.8194 14.0678 15.819 14.1288C15.8332 14.1128 15.8538 14.0979 15.8805 14.0839C15.9073 14.0699 15.937 14.0629 15.9694 14.0629C16.0231 14.0629 16.068 14.0807 16.1041 14.1164C16.1404 14.152 16.1584 14.1994 16.1584 14.2583C16.1584 14.3174 16.1389 14.3648 16.0999 14.4008C16.0607 14.4367 16.0116 14.4547 15.9523 14.4547C15.8566 14.4547 15.7903 14.4119 15.7539 14.3264C15.7334 14.2774 15.7231 14.222 15.7231 14.1605C15.7231 14.0989 15.7296 14.0476 15.7427 14.0065C15.7559 13.9654 15.7738 13.9329 15.7967 13.909C15.8411 13.8622 15.8959 13.8389 15.9605 13.8389C16.0252 13.8389 16.0838 13.859 16.1363 13.8995L16.0858 13.9739C16.0727 13.9625 16.0551 13.9523 16.0332 13.9432C16.0111 13.934 15.9916 13.9295 15.9746 13.9295ZM15.9562 14.1519C15.9217 14.1519 15.8928 14.1614 15.8697 14.1806C15.8466 14.1997 15.835 14.2245 15.835 14.255C15.835 14.2855 15.8462 14.3117 15.8685 14.3337C15.8906 14.3557 15.9186 14.3666 15.9523 14.3666C15.9859 14.3666 16.0139 14.3568 16.036 14.3371C16.0583 14.3174 16.0694 14.2923 16.0694 14.2618C16.0694 14.2313 16.0591 14.2053 16.0387 14.1839C16.0182 14.1626 15.9906 14.1519 15.9562 14.1519Z" fill="#2F4859"/>
        <path d="M18.1396 11.7227V11.6328H18.4894V11.7116L18.3448 11.8733C18.3997 11.875 18.4424 11.8922 18.4732 11.925C18.5039 11.9579 18.5194 11.997 18.5194 12.0426C18.5194 12.1037 18.4986 12.1516 18.4573 12.1863C18.4159 12.2211 18.3627 12.2385 18.2977 12.2385C18.2327 12.2385 18.169 12.2177 18.1069 12.176L18.1497 12.0948C18.1987 12.129 18.2501 12.1461 18.3037 12.1461C18.3385 12.1461 18.3671 12.138 18.3896 12.1217C18.4121 12.1055 18.4234 12.0821 18.4234 12.0516C18.4234 12.0211 18.4108 11.9967 18.3857 11.9784C18.3606 11.9602 18.3259 11.951 18.2814 11.951C18.2591 11.951 18.2378 11.9542 18.2172 11.9604V11.8835L18.3558 11.7227H18.1396Z" fill="#2F4859"/>
        <path d="M16.084 10.3076H15.9563V11.9236H16.084V10.3076Z" fill="#2F4859"/>
        <path d="M15.8923 11.8564H14.7163V11.995H15.8923V11.8564Z" fill="#2F4859"/>
        <path d="M17.3269 13.4368L17.3872 13.3838L15.5612 11.307L15.5009 11.36L17.3269 13.4368Z" fill="#E56353"/>
        <path d="M16.0161 12.1318C16.1309 12.1318 16.2241 12.0387 16.2241 11.9238C16.2241 11.8089 16.1309 11.7158 16.0161 11.7158C15.9012 11.7158 15.8081 11.8089 15.8081 11.9238C15.8081 12.0387 15.9012 12.1318 16.0161 12.1318Z" fill="#27A2DB"/>
        <path d="M32 29.9556H0V31.218H32V29.9556Z" fill="#3A556A"/>
        <path d="M17.8805 24.103H14.0725V29.958H17.8805V24.103Z" fill="white"/>
        <path d="M10.2579 14.6416H8.51709V17.6598H10.2579V14.6416Z" fill="#2D93BA"/>
        <path d="M8.51709 17.6602V14.6421H10.2581L8.51709 17.6602Z" fill="#27A2DB"/>
        <path d="M10.2579 19.3667H8.51709V22.3849H10.2579V19.3667Z" fill="#2D93BA"/>
        <path d="M8.51709 22.3844V19.3662H10.2581L8.51709 22.3844Z" fill="#27A2DB"/>
        <path d="M10.2579 24.0898H8.51709V27.1081H10.2579V24.0898Z" fill="#2D93BA"/>
        <path d="M8.51709 27.1085V24.0903H10.2581L8.51709 27.1085Z" fill="#27A2DB"/>
        <path d="M7.3917 14.6416H5.65088V17.6598H7.3917V14.6416Z" fill="#2D93BA"/>
        <path d="M5.65112 17.6602V14.6421H7.39202L5.65112 17.6602Z" fill="#27A2DB"/>
        <path d="M7.3917 19.3667H5.65088V22.3849H7.3917V19.3667Z" fill="#2D93BA"/>
        <path d="M5.65112 22.3844V19.3662H7.39202L5.65112 22.3844Z" fill="#27A2DB"/>
        <path d="M7.3917 24.0898H5.65088V27.1081H7.3917V24.0898Z" fill="#2D93BA"/>
        <path d="M5.65112 27.1085V24.0903H7.39202L5.65112 27.1085Z" fill="#27A2DB"/>
        <path d="M4.52573 14.6416H2.78491V17.6598H4.52573V14.6416Z" fill="#2D93BA"/>
        <path d="M2.78491 17.6602V14.6421H4.52581L2.78491 17.6602Z" fill="#27A2DB"/>
        <path d="M4.52573 19.3667H2.78491V22.3849H4.52573V19.3667Z" fill="#2D93BA"/>
        <path d="M2.78491 22.3844V19.3662H4.52581L2.78491 22.3844Z" fill="#27A2DB"/>
        <path d="M4.52573 24.0898H2.78491V27.1081H4.52573V24.0898Z" fill="#2D93BA"/>
        <path d="M2.78491 27.1085V24.0903H4.52581L2.78491 27.1085Z" fill="#27A2DB"/>
        <path d="M15.2244 17.1367H12.6145V19.4094H15.2244V17.1367Z" fill="#2D93BA"/>
        <path d="M12.616 19.409V17.1362H15.2257L12.616 19.409Z" fill="#27A2DB"/>
        <path d="M19.1859 17.1367H16.5759V19.4094H19.1859V17.1367Z" fill="#2D93BA"/>
        <path d="M16.5759 19.409V17.1362H19.1857L16.5759 19.409Z" fill="#27A2DB"/>
        <path d="M15.2813 20.3267H12.6714V22.5993H15.2813V20.3267Z" fill="#2D93BA"/>
        <path d="M12.6714 22.599V20.3262H15.2812L12.6714 22.599Z" fill="#27A2DB"/>
        <path d="M19.2413 20.3267H16.6313V22.5993H19.2413V20.3267Z" fill="#2D93BA"/>
        <path d="M16.6313 22.599V20.3262H19.2411L16.6313 22.599Z" fill="#27A2DB"/>
    </g>
    <defs>
        <clipPath id="clip0_453_433">
            <rect width="32" height="32" fill="white"/>
        </clipPath>
    </defs>
</svg>
