<svg width="33" height="32" viewBox="0 0 33 32" fill="none" xmlns="http://www.w3.org/2000/svg">
    <path d="M20.7862 25.1389C20.7862 25.4566 21.0364 25.7142 21.3593 25.7142H24.2132C24.5297 25.7142 24.7863 25.454 24.7863 25.1474V15.4229C24.7863 14.7946 24.4218 13.9207 23.9752 13.4741L17.1938 6.69273C16.9686 6.46754 16.6039 6.46712 16.3783 6.69273L9.59692 13.4741C9.14895 13.9221 8.78579 14.7985 8.78579 15.4229V25.1474C8.78579 25.4605 9.03602 25.7142 9.35891 25.7142H12.2128C12.5293 25.7142 12.7859 25.4571 12.7859 25.1389V19.9958C12.7859 18.7356 13.8073 17.7139 15.0678 17.7139H18.5043C19.7646 17.7139 20.7862 18.7353 20.7862 19.9958V25.1389ZM18.5004 20.8559C18.5004 20.3831 18.1204 19.9997 17.644 19.9997H15.9281C15.4551 19.9997 15.0717 20.3856 15.0717 20.8559V25.7182C15.0717 26.9784 14.0463 28 12.7859 28H8.7858C7.52339 28 6.5 26.9807 6.5 25.7091V15.6293C6.5 14.3641 7.2233 12.6152 8.11851 11.7199L15.1675 4.67091C16.0614 3.77703 17.5094 3.77569 18.4046 4.67091L25.4536 11.7199C26.3475 12.6138 27.0721 14.3578 27.0721 15.6293V25.7091C27.0721 26.9743 26.0467 28 24.7863 28H20.7862C19.5238 28 18.5004 26.9786 18.5004 25.7182V20.8559Z" fill="#ACACAC"/>
</svg>
