<svg width="20" height="20" viewBox="0 0 20 20" fill="none" xmlns="http://www.w3.org/2000/svg">
    <path d="M17.8551 9.24582L3.68846 2.57915C3.54582 2.51167 3.38694 2.48611 3.23033 2.50546C3.07373 2.52481 2.92584 2.58827 2.80392 2.68845C2.682 2.78862 2.59106 2.92139 2.5417 3.07127C2.49234 3.22114 2.48659 3.38197 2.52513 3.53499L4.14096 9.99999L2.52513 16.465C2.48623 16.6181 2.49173 16.7791 2.54097 16.9291C2.59022 17.0792 2.68118 17.2121 2.80321 17.3124C2.92524 17.4127 3.0733 17.4761 3.23007 17.4953C3.38684 17.5145 3.54584 17.4887 3.68846 17.4208L17.8551 10.7542C17.9983 10.6869 18.1193 10.5802 18.2041 10.4467C18.2889 10.3131 18.334 10.1582 18.334 9.99999C18.334 9.84179 18.2889 9.68687 18.2041 9.55332C18.1193 9.41977 17.9983 9.31312 17.8551 9.24582ZM4.56763 15.1642L5.26679 12.3667L10.0001 9.99999L5.26679 7.63332L4.56763 4.83582L15.5426 9.99999L4.56763 15.1642Z" fill="#1167C3"/>
</svg>
