<svg width="32" height="32" viewBox="0 0 32 32" fill="none" xmlns="http://www.w3.org/2000/svg">
    <path d="M10.5458 10.5192C9.94325 10.5192 9.45481 9.95527 9.45481 9.25961C9.45481 8.56394 9.94325 8 10.5458 8H26.909C27.5116 8 28 8.56394 28 9.25961C28 9.95527 27.5116 10.5192 26.909 10.5192H10.5458ZM10.5458 18.0769C9.94325 18.0769 9.45481 17.5129 9.45481 16.8172C9.45481 16.1216 9.94325 15.5576 10.5458 15.5576H26.909C27.5116 15.5576 28 16.1216 28 16.8172C28 17.5129 27.5116 18.0769 26.909 18.0769H10.5458ZM10.5458 25.6345C9.94325 25.6345 9.45481 25.0705 9.45481 24.3749C9.45481 23.6792 9.94325 23.1153 10.5458 23.1153H26.909C27.5116 23.1153 28 23.6792 28 24.3749C28 25.0705 27.5116 25.6345 26.909 25.6345H10.5458ZM5.09096 10.5192C4.48844 10.5192 4 9.95527 4 9.25961C4 8.56394 4.48844 8 5.09096 8H6.18076C6.78328 8 7.27172 8.56394 7.27172 9.25961C7.27172 9.95527 6.78328 10.5192 6.18076 10.5192H5.09096ZM5.09096 18.0769C4.48844 18.0769 4 17.5129 4 16.8172C4 16.1216 4.48844 15.5576 5.09096 15.5576H6.18076C6.78328 15.5576 7.27172 16.1216 7.27172 16.8172C7.27172 17.5129 6.78328 18.0769 6.18076 18.0769H5.09096ZM5.09096 25.6345C4.48844 25.6345 4 25.0705 4 24.3749C4 23.6792 4.48844 23.1153 5.09096 23.1153H6.18076C6.78328 23.1153 7.27172 23.6792 7.27172 24.3749C7.27172 25.0705 6.78328 25.6345 6.18076 25.6345H5.09096Z" fill="#ACACAC"/>
</svg>
