<svg width="24" height="24" viewBox="0 0 24 24" fill="none" xmlns="http://www.w3.org/2000/svg">
    <path d="M16.6895 9.34183C18.21 9.34183 19.4652 8.10332 19.4652 6.59591C19.4652 5.08851 18.21 3.85 16.6895 3.85C15.1689 3.85 13.9137 5.08851 13.9137 6.59591C13.9137 6.84284 13.9448 7.07511 14.0068 7.30498L10.3022 9.96027C9.72319 9.446 8.96392 9.11875 8.112 9.11875C6.31918 9.11875 4.85 10.5688 4.85 12.3454C4.85 14.122 6.31918 15.572 8.112 15.572C8.96366 15.572 9.72273 15.245 10.3017 14.731L13.9875 17.4044C13.9254 17.6345 13.8943 17.8669 13.8943 18.1141C13.8943 19.6215 15.1495 20.86 16.67 20.86C18.1905 20.86 19.4458 19.6215 19.4458 18.1141C19.4458 16.6067 18.1905 15.3682 16.67 15.3682C15.9931 15.3682 15.3721 15.6195 14.8914 16.0193L11.2073 13.3654C11.3082 13.0535 11.374 12.7104 11.374 12.3646C11.374 12.0187 11.3081 11.6754 11.2071 11.3635L14.8917 8.69094C15.3728 9.09096 15.995 9.34183 16.6895 9.34183ZM16.6895 5.49603C17.3084 5.49603 17.8037 5.98813 17.8037 6.59591C17.8037 7.2037 17.3084 7.6958 16.6895 7.6958C16.0705 7.6958 15.5752 7.2037 15.5752 6.59591C15.5752 5.98813 16.0705 5.49603 16.6895 5.49603ZM8.13145 13.926C7.24017 13.926 6.53095 13.2224 6.53095 12.3454C6.53095 11.4684 7.24017 10.7648 8.13145 10.7648C9.02273 10.7648 9.73196 11.4684 9.73196 12.3454C9.73196 13.2213 9.00437 13.926 8.13145 13.926ZM16.6895 17.0334C17.3084 17.0334 17.8037 17.5255 17.8037 18.1333C17.8037 18.7411 17.3084 19.2332 16.6895 19.2332C16.0705 19.2332 15.5752 18.7411 15.5752 18.1333C15.5752 17.5255 16.0705 17.0334 16.6895 17.0334Z" fill="#242424" stroke="#242424" stroke-width="0.3"/>
</svg>
