<svg xmlns="http://www.w3.org/2000/svg" width="24" height="24" viewBox="0 0 24 24" fill="none">
    <g clip-path="url(#clip0_453_3677)">
        <path d="M0.928613 8.53353L0.929789 8.52419C0.95362 8.335 1.04605 8.16113 1.18956 8.03556C1.33292 7.91012 1.51728 7.8416 1.70774 7.84294M0.928613 8.53353L5.7929 7.99294M0.928613 8.53353V8.54294V22.2929V22.3024L0.929789 22.3117C0.95362 22.5009 1.04606 22.6748 1.18956 22.8003C1.33295 22.9258 1.51735 22.9943 1.70785 22.9929M0.928613 8.53353L1.70718 22.8429M1.70774 7.84294C1.70795 7.84294 1.70815 7.84294 1.70836 7.84294L1.70718 7.99294V7.84294H1.70774ZM1.70774 7.84294H5.79234M5.79234 7.84294C5.79214 7.84294 5.79193 7.84294 5.79172 7.84294L5.7929 7.99294M5.79234 7.84294H5.7929V7.99294M5.79234 7.84294C5.98281 7.8416 6.16717 7.91012 6.31052 8.03556L6.21247 8.14762L6.31052 8.03556C6.45403 8.16113 6.54647 8.335 6.5703 8.52419L6.57147 8.53353V8.54294V22.2929V22.3024L6.5703 22.3117C6.54646 22.5009 6.45403 22.6748 6.31052 22.8003C6.16714 22.9258 5.98274 22.9943 5.79223 22.9929M5.7929 7.99294L1.70718 22.8429M5.79223 22.9929C5.79206 22.9929 5.79189 22.9929 5.79173 22.9929L5.7929 22.8429V22.9929H5.79223ZM5.79223 22.9929H1.70785M1.70785 22.9929C1.70802 22.9929 1.70819 22.9929 1.70836 22.9929L1.70718 22.8429M1.70785 22.9929H1.70718V22.8429M5.0929 21.5144H2.40718V9.32151H5.0929V21.5144Z" fill="#ACACAC" stroke="#ACACAC" stroke-width="0.3"/>
        <path d="M14.0508 1.00723L14.0587 1.00806C14.2537 1.02876 14.4357 1.11568 14.5744 1.25433C14.713 1.39298 14.7999 1.57498 14.8206 1.76997L14.8215 1.77786V1.7858V22.2929V22.3024L14.8203 22.3117C14.7965 22.5009 14.704 22.6748 14.5605 22.8003C14.4171 22.9258 14.2327 22.9943 14.0422 22.9929M14.0508 1.00723L14.0429 22.8429M14.0508 1.00723H14.0429H9.95718H9.94925L9.94135 1.00806C9.74637 1.02876 9.56437 1.11568 9.42572 1.25433C9.28706 1.39298 9.20014 1.57498 9.17945 1.76997L9.17861 1.77786V1.7858V22.2929V22.3024L9.17979 22.3117C9.20362 22.5009 9.29606 22.6748 9.43956 22.8003C9.58295 22.9258 9.76735 22.9943 9.95785 22.9929M14.0508 1.00723L9.95718 22.8429M14.0422 22.9929C14.0421 22.9929 14.0419 22.9929 14.0417 22.9929L14.0429 22.8429M14.0422 22.9929H14.0429V22.8429M14.0422 22.9929H9.95785M14.0429 22.8429H9.95718M9.95785 22.9929C9.95802 22.9929 9.95819 22.9929 9.95836 22.9929L9.95718 22.8429M9.95785 22.9929H9.95718V22.8429M13.3429 21.5144H10.6572V2.56437H13.3429V21.5144Z" fill="#ACACAC" stroke="#ACACAC" stroke-width="0.3"/>
        <path d="M22.3008 8.70718L22.3087 8.70802C22.5037 8.72871 22.6857 8.81563 22.8244 8.95428L22.7183 9.06035L22.8244 8.95428C22.963 9.09293 23.0499 9.27493 23.0706 9.46992L23.0715 9.47781V9.48575V22.2929V22.3023L23.0703 22.3116C23.0465 22.5008 22.954 22.6747 22.8105 22.8003C22.6671 22.9257 22.4827 22.9943 22.2922 22.9929M22.3008 8.70718L22.2929 22.8429M22.3008 8.70718H22.2929H18.2072H18.1992L18.1914 8.70802C17.9964 8.72871 17.8144 8.81563 17.6757 8.95428C17.5371 9.09293 17.4501 9.27493 17.4295 9.46992L17.4286 9.47781V9.48575V22.2929V22.3023L17.4298 22.3116C17.4536 22.5008 17.5461 22.6747 17.6896 22.8003C17.8329 22.9257 18.0173 22.9943 18.2079 22.9929M22.3008 8.70718L18.2072 22.8429M22.2922 22.9929C22.2921 22.9929 22.2919 22.9929 22.2917 22.9929L22.2929 22.8429M22.2922 22.9929H22.2929V22.8429M22.2922 22.9929H18.2079M22.2929 22.8429H18.2072M18.2079 22.9929C18.208 22.9929 18.2082 22.9929 18.2084 22.9929L18.2072 22.8429M18.2079 22.9929H18.2072V22.8429M21.5929 21.5143H18.9072V10.1857H21.5929V21.5143Z" fill="#ACACAC" stroke="#ACACAC" stroke-width="0.3"/>
    </g>
    <defs>
        <clipPath id="clip0_453_3677">
            <rect width="24" height="24" fill="white"/>
        </clipPath>
    </defs>
</svg>