<svg width="32" height="32" viewBox="0 0 32 32" fill="none" xmlns="http://www.w3.org/2000/svg">
<g clip-path="url(#clip0_115_692)">
<path d="M5.56885 18.8873C5.56885 25.7495 10.239 31.3125 15.9999 31.3125V7.78125C10.239 7.78125 5.56885 12.7536 5.56885 18.8873Z" fill="#FF8F71"/>
<path d="M16 7.78125V31.3125C21.7609 31.3125 26.4311 25.7495 26.4311 18.8873C26.4311 12.7536 21.7609 7.78125 16 7.78125Z" fill="#FFB39D"/>
<path d="M19.7773 27.7376C19.0804 26.8626 18.0917 26.2336 16.9615 26.003C16.6506 25.9396 16.3291 25.9062 15.9999 25.9062C14.4742 25.9062 13.1112 26.6218 12.2227 27.7375C11.5559 28.5748 11.1562 29.6374 11.1562 30.7925V31.5312H15.9999H20.8437V30.7925C20.8437 29.6374 20.444 28.5749 19.7773 27.7376Z" fill="#B7BDED"/>
<path d="M19.7773 27.7376C19.0804 26.8626 18.0917 26.2336 16.9615 26.003C16.6506 25.9396 16.3291 25.9062 15.9999 25.9062C14.4742 25.9062 13.1112 26.6218 12.2227 27.7375C11.5559 28.5748 11.1562 29.6374 11.1562 30.7925V31.5312H15.9999H20.8437V30.7925C20.8437 29.6374 20.444 28.5749 19.7773 27.7376Z" fill="#8288CB"/>
<path d="M19.3032 26.8459L18.3672 26.5308H16H13.6328L12.6968 26.8459C12.1161 27.0415 11.9646 27.7923 12.424 28.1978L14.2978 29.8514V30.0553C14.2978 30.3702 14.467 30.6608 14.7407 30.8162L16 31.5313L17.2592 30.8163C17.5331 30.6608 17.7022 30.3702 17.7022 30.0554V29.8514L19.576 28.1978C20.0355 27.7923 19.884 27.0415 19.3032 26.8459Z" fill="#676FB2"/>
<path d="M16 24.5396L13.6328 26.5307C13.8968 27.7813 14.7941 28.8035 16 29.2271C17.2059 28.8034 18.1033 27.7813 18.3672 26.5307L16 24.5396Z" fill="#FFCBBE"/>
<path d="M25.0625 15.5938H6.9375C5.72938 15.5938 4.75 16.5731 4.75 17.7812C4.75 18.9894 5.72938 19.9688 6.9375 19.9688H25.0625C26.2706 19.9688 27.25 18.9894 27.25 17.7812C27.25 16.5731 26.2706 15.5938 25.0625 15.5938Z" fill="#FFCBBE"/>
<path d="M17.5093 8.84456C17.0184 8.76225 16.5143 8.71875 16 8.71875C15.4858 8.71875 14.9817 8.76225 14.4908 8.84456C10.2042 9.56319 6.9375 13.2904 6.9375 17.7812C6.9375 22.2721 10.2042 25.9993 14.4908 26.7179C14.9817 26.8002 15.4858 26.8438 16 26.8438C16.5142 26.8438 17.0183 26.8002 17.5093 26.7179C21.7958 25.9993 25.0625 22.2721 25.0625 17.7812C25.0625 13.2904 21.7958 9.56325 17.5093 8.84456Z" fill="#FFDDCF"/>
<path d="M11 22.1562C12.001 22.1562 12.8125 21.5127 12.8125 20.7188C12.8125 19.9248 12.001 19.2812 11 19.2812C9.99898 19.2812 9.1875 19.9248 9.1875 20.7188C9.1875 21.5127 9.99898 22.1562 11 22.1562Z" fill="#FF8E9E"/>
<path d="M21 22.1562C22.001 22.1562 22.8125 21.5127 22.8125 20.7188C22.8125 19.9248 22.001 19.2812 21 19.2812C19.999 19.2812 19.1875 19.9248 19.1875 20.7188C19.1875 21.5127 19.999 22.1562 21 22.1562Z" fill="#FF8E9E"/>
<path d="M25.9298 15.4756C25.3996 13.7252 24.4724 12.1647 23.2613 10.9142C21.9037 9.51231 20.1892 8.50031 18.2769 8.047C17.544 7.87325 16.7822 7.78125 16.0001 7.78125C13.1772 7.78125 10.6161 8.97494 8.73812 10.9144C7.52743 12.1648 6.60062 13.7254 6.07056 15.4753L7.20343 15.5937C7.02987 16.2941 6.93762 17.0266 6.93762 17.7812C7.96693 17.7804 8.98087 17.6346 9.95481 17.3519C11.0036 17.0474 12.006 16.5844 12.9306 15.9711C14.1682 15.1502 15.2085 14.1017 16.0001 12.8871C16.7917 14.1017 17.8321 15.1502 19.0697 15.9711C20.8528 17.1538 22.9249 17.7796 25.0626 17.7811C25.0626 17.0265 24.9704 16.294 24.7968 15.5937L25.9298 15.4756Z" fill="#FFB39D"/>
<path d="M8.73891 6.88922L8.73804 10.9145C13.2106 13.5451 18.7887 13.5448 23.2612 10.9142V6.88916H8.73891V6.88922Z" fill="#676FB2"/>
<path d="M26.052 4.52469L17.1068 0.695687C16.7534 0.544375 16.3767 0.46875 16 0.46875C15.8594 0.46875 15.7186 0.479312 15.5791 0.500437C15.3452 0.535812 15.1147 0.600875 14.8933 0.695687L5.94811 4.52469C4.81092 5.01144 4.81092 6.6235 5.94811 7.11025L14.8933 10.9392C15.2467 11.0905 15.6234 11.1661 16 11.1661C16.3767 11.1661 16.7534 11.0905 17.1068 10.9392L26.052 7.11025C27.1892 6.6235 27.1892 5.01144 26.052 4.52469Z" fill="#8288CB"/>
<path d="M6.07056 11.2644C6.76091 11.2644 7.32056 10.7048 7.32056 10.0144C7.32056 9.32405 6.76091 8.7644 6.07056 8.7644C5.3802 8.7644 4.82056 9.32405 4.82056 10.0144C4.82056 10.7048 5.3802 11.2644 6.07056 11.2644Z" fill="#FFCE71"/>
<path d="M12.0969 18.125C11.838 18.125 11.6282 18.3349 11.6282 18.5938V19.3438C11.6282 19.6026 11.838 19.8125 12.0969 19.8125C12.3558 19.8125 12.5657 19.6026 12.5657 19.3438V18.5938C12.5657 18.3349 12.3558 18.125 12.0969 18.125Z" fill="black"/>
<path d="M19.9031 18.125C19.6442 18.125 19.4343 18.3349 19.4343 18.5938V19.3438C19.4343 19.6026 19.6442 19.8125 19.9031 19.8125C20.162 19.8125 20.3718 19.6026 20.3718 19.3438V18.5938C20.3718 18.3349 20.162 18.125 19.9031 18.125Z" fill="black"/>
<path d="M17.3369 18.9367C17.1417 18.7666 16.8456 18.7869 16.6755 18.9821C16.5049 19.1778 16.2586 19.2901 15.9998 19.2901C15.741 19.2901 15.4947 19.1778 15.3241 18.9821C15.154 18.7869 14.8579 18.7666 14.6627 18.9367C14.4676 19.1068 14.4472 19.4029 14.6174 19.5981C14.9661 19.9981 15.4699 20.2276 15.9997 20.2276C16.5295 20.2276 17.0334 19.9982 17.3821 19.5981C17.5524 19.4029 17.532 19.1068 17.3369 18.9367Z" fill="black"/>
</g>
<defs>
<clipPath id="clip0_115_692">
<rect width="32" height="32" fill="white"/>
</clipPath>
</defs>
</svg>
