<svg width="16" height="16" viewBox="0 0 16 16" fill="none" xmlns="http://www.w3.org/2000/svg">
    <path d="M7.681 11.36C4.5883 11.36 2.15538 7.99864 2.05791 7.86119C2.02024 7.80828 2 7.74495 2 7.68C2 7.61505 2.02024 7.55172 2.05791 7.49881C2.16038 7.35511 4.59205 4 7.681 4C10.77 4 13.2066 7.36136 13.3041 7.49881C13.3418 7.55172 13.362 7.61505 13.362 7.68C13.362 7.74495 13.3418 7.80828 13.3041 7.86119C13.2066 7.99864 10.7737 11.36 7.681 11.36ZM2.70144 7.67375C3.24251 8.35727 5.29806 10.7352 7.681 10.7352C10.0639 10.7352 12.1195 8.36102 12.6606 7.67375C12.1195 6.99023 10.0639 4.61229 7.681 4.61229C5.29806 4.61229 3.24251 6.99023 2.70144 7.67375ZM7.681 9.67307C7.28558 9.67307 6.89903 9.55581 6.57024 9.33613C6.24145 9.11644 5.9852 8.80419 5.83387 8.43886C5.68255 8.07353 5.64295 7.67153 5.7201 7.2837C5.79724 6.89587 5.98766 6.53963 6.26727 6.26002C6.54688 5.98041 6.90313 5.78999 7.29096 5.71285C7.67879 5.6357 8.08078 5.6753 8.44611 5.82662C8.81144 5.97794 9.12369 6.2342 9.34338 6.56299C9.56307 6.89178 9.68033 7.27832 9.68033 7.67375C9.68033 8.204 9.46968 8.71254 9.09474 9.08749C8.71979 9.46243 8.21126 9.67307 7.681 9.67307ZM7.681 6.29922C7.40915 6.29922 7.14339 6.37983 6.91735 6.53087C6.69131 6.68191 6.51514 6.89658 6.4111 7.14774C6.30707 7.3989 6.27984 7.67528 6.33288 7.94191C6.38592 8.20854 6.51683 8.45346 6.70906 8.64569C6.90129 8.83793 7.14621 8.96884 7.41285 9.02187C7.67948 9.07491 7.95585 9.04769 8.20702 8.94366C8.45818 8.83962 8.67285 8.66344 8.82389 8.4374C8.97492 8.21136 9.05554 7.94561 9.05554 7.67375C9.05554 7.3092 8.91072 6.95959 8.65295 6.70181C8.39517 6.44404 8.04555 6.29922 7.681 6.29922Z" fill="#D0E3F2"/>
</svg>
